<?xml version="1.0" encoding="utf-8" standalone="no"?>
<!DOCTYPE svg PUBLIC "-//W3C//DTD SVG 1.1//EN"
  "http://www.w3.org/Graphics/SVG/1.1/DTD/svg11.dtd">
<svg xmlns:xlink="http://www.w3.org/1999/xlink" width="460.8pt" height="345.6pt" viewBox="0 0 460.8 345.6" xmlns="http://www.w3.org/2000/svg" version="1.1">
 <metadata>
  <rdf:RDF xmlns:dc="http://purl.org/dc/elements/1.1/" xmlns:cc="http://creativecommons.org/ns#" xmlns:rdf="http://www.w3.org/1999/02/22-rdf-syntax-ns#">
   <cc:Work>
    <dc:type rdf:resource="http://purl.org/dc/dcmitype/StillImage"/>
    <dc:date>2022-07-11T16:03:52.821079</dc:date>
    <dc:format>image/svg+xml</dc:format>
    <dc:creator>
     <cc:Agent>
      <dc:title>Matplotlib v3.5.2, https://matplotlib.org/</dc:title>
     </cc:Agent>
    </dc:creator>
   </cc:Work>
  </rdf:RDF>
 </metadata>
 <defs>
  <style type="text/css">*{stroke-linejoin: round; stroke-linecap: butt}</style>
 </defs>
 <g id="figure_1">
  <g id="patch_1">
   <path d="M 0 345.6 
L 460.8 345.6 
L 460.8 0 
L 0 0 
z
" style="fill: #ffffff"/>
  </g>
  <g id="axes_1">
   <g id="patch_2">
    <path d="M 57.6 99.322435 
L 414.72 99.322435 
L 414.72 41.472 
L 57.6 41.472 
z
" style="fill: #ffffff"/>
   </g>
   <g id="matplotlib.axis_1">
    <g id="xtick_1">
     <g id="line2d_1">
      <path d="M 73.832727 99.322435 
L 73.832727 41.472 
" clip-path="url(#pdd4181ce09)" style="fill: none; stroke: #b0b0b0; stroke-width: 0.8; stroke-linecap: square"/>
     </g>
     <g id="line2d_2">
      <defs>
       <path id="m305400553e" d="M 0 0 
L 0 3.5 
" style="stroke: #000000; stroke-width: 0.8"/>
      </defs>
      <g>
       <use xlink:href="#m305400553e" x="73.832727" y="99.322435" style="stroke: #000000; stroke-width: 0.8"/>
      </g>
     </g>
     <g id="text_1">
      <!-- 0.00 -->
      <g transform="translate(62.699915 113.920872)scale(0.1 -0.1)">
       <defs>
        <path id="DejaVuSans-30" d="M 2034 4250 
Q 1547 4250 1301 3770 
Q 1056 3291 1056 2328 
Q 1056 1369 1301 889 
Q 1547 409 2034 409 
Q 2525 409 2770 889 
Q 3016 1369 3016 2328 
Q 3016 3291 2770 3770 
Q 2525 4250 2034 4250 
z
M 2034 4750 
Q 2819 4750 3233 4129 
Q 3647 3509 3647 2328 
Q 3647 1150 3233 529 
Q 2819 -91 2034 -91 
Q 1250 -91 836 529 
Q 422 1150 422 2328 
Q 422 3509 836 4129 
Q 1250 4750 2034 4750 
z
" transform="scale(0.015625)"/>
        <path id="DejaVuSans-2e" d="M 684 794 
L 1344 794 
L 1344 0 
L 684 0 
L 684 794 
z
" transform="scale(0.015625)"/>
       </defs>
       <use xlink:href="#DejaVuSans-30"/>
       <use xlink:href="#DejaVuSans-2e" x="63.623047"/>
       <use xlink:href="#DejaVuSans-30" x="95.410156"/>
       <use xlink:href="#DejaVuSans-30" x="159.033203"/>
      </g>
     </g>
    </g>
    <g id="xtick_2">
     <g id="line2d_3">
      <path d="M 114.516254 99.322435 
L 114.516254 41.472 
" clip-path="url(#pdd4181ce09)" style="fill: none; stroke: #b0b0b0; stroke-width: 0.8; stroke-linecap: square"/>
     </g>
     <g id="line2d_4">
      <g>
       <use xlink:href="#m305400553e" x="114.516254" y="99.322435" style="stroke: #000000; stroke-width: 0.8"/>
      </g>
     </g>
     <g id="text_2">
      <!-- 0.05 -->
      <g transform="translate(103.383442 113.920872)scale(0.1 -0.1)">
       <defs>
        <path id="DejaVuSans-35" d="M 691 4666 
L 3169 4666 
L 3169 4134 
L 1269 4134 
L 1269 2991 
Q 1406 3038 1543 3061 
Q 1681 3084 1819 3084 
Q 2600 3084 3056 2656 
Q 3513 2228 3513 1497 
Q 3513 744 3044 326 
Q 2575 -91 1722 -91 
Q 1428 -91 1123 -41 
Q 819 9 494 109 
L 494 744 
Q 775 591 1075 516 
Q 1375 441 1709 441 
Q 2250 441 2565 725 
Q 2881 1009 2881 1497 
Q 2881 1984 2565 2268 
Q 2250 2553 1709 2553 
Q 1456 2553 1204 2497 
Q 953 2441 691 2322 
L 691 4666 
z
" transform="scale(0.015625)"/>
       </defs>
       <use xlink:href="#DejaVuSans-30"/>
       <use xlink:href="#DejaVuSans-2e" x="63.623047"/>
       <use xlink:href="#DejaVuSans-30" x="95.410156"/>
       <use xlink:href="#DejaVuSans-35" x="159.033203"/>
      </g>
     </g>
    </g>
    <g id="xtick_3">
     <g id="line2d_5">
      <path d="M 155.199781 99.322435 
L 155.199781 41.472 
" clip-path="url(#pdd4181ce09)" style="fill: none; stroke: #b0b0b0; stroke-width: 0.8; stroke-linecap: square"/>
     </g>
     <g id="line2d_6">
      <g>
       <use xlink:href="#m305400553e" x="155.199781" y="99.322435" style="stroke: #000000; stroke-width: 0.8"/>
      </g>
     </g>
     <g id="text_3">
      <!-- 0.10 -->
      <g transform="translate(144.066969 113.920872)scale(0.1 -0.1)">
       <defs>
        <path id="DejaVuSans-31" d="M 794 531 
L 1825 531 
L 1825 4091 
L 703 3866 
L 703 4441 
L 1819 4666 
L 2450 4666 
L 2450 531 
L 3481 531 
L 3481 0 
L 794 0 
L 794 531 
z
" transform="scale(0.015625)"/>
       </defs>
       <use xlink:href="#DejaVuSans-30"/>
       <use xlink:href="#DejaVuSans-2e" x="63.623047"/>
       <use xlink:href="#DejaVuSans-31" x="95.410156"/>
       <use xlink:href="#DejaVuSans-30" x="159.033203"/>
      </g>
     </g>
    </g>
    <g id="xtick_4">
     <g id="line2d_7">
      <path d="M 195.883308 99.322435 
L 195.883308 41.472 
" clip-path="url(#pdd4181ce09)" style="fill: none; stroke: #b0b0b0; stroke-width: 0.8; stroke-linecap: square"/>
     </g>
     <g id="line2d_8">
      <g>
       <use xlink:href="#m305400553e" x="195.883308" y="99.322435" style="stroke: #000000; stroke-width: 0.8"/>
      </g>
     </g>
     <g id="text_4">
      <!-- 0.15 -->
      <g transform="translate(184.750496 113.920872)scale(0.1 -0.1)">
       <use xlink:href="#DejaVuSans-30"/>
       <use xlink:href="#DejaVuSans-2e" x="63.623047"/>
       <use xlink:href="#DejaVuSans-31" x="95.410156"/>
       <use xlink:href="#DejaVuSans-35" x="159.033203"/>
      </g>
     </g>
    </g>
    <g id="xtick_5">
     <g id="line2d_9">
      <path d="M 236.566835 99.322435 
L 236.566835 41.472 
" clip-path="url(#pdd4181ce09)" style="fill: none; stroke: #b0b0b0; stroke-width: 0.8; stroke-linecap: square"/>
     </g>
     <g id="line2d_10">
      <g>
       <use xlink:href="#m305400553e" x="236.566835" y="99.322435" style="stroke: #000000; stroke-width: 0.8"/>
      </g>
     </g>
     <g id="text_5">
      <!-- 0.20 -->
      <g transform="translate(225.434023 113.920872)scale(0.1 -0.1)">
       <defs>
        <path id="DejaVuSans-32" d="M 1228 531 
L 3431 531 
L 3431 0 
L 469 0 
L 469 531 
Q 828 903 1448 1529 
Q 2069 2156 2228 2338 
Q 2531 2678 2651 2914 
Q 2772 3150 2772 3378 
Q 2772 3750 2511 3984 
Q 2250 4219 1831 4219 
Q 1534 4219 1204 4116 
Q 875 4013 500 3803 
L 500 4441 
Q 881 4594 1212 4672 
Q 1544 4750 1819 4750 
Q 2544 4750 2975 4387 
Q 3406 4025 3406 3419 
Q 3406 3131 3298 2873 
Q 3191 2616 2906 2266 
Q 2828 2175 2409 1742 
Q 1991 1309 1228 531 
z
" transform="scale(0.015625)"/>
       </defs>
       <use xlink:href="#DejaVuSans-30"/>
       <use xlink:href="#DejaVuSans-2e" x="63.623047"/>
       <use xlink:href="#DejaVuSans-32" x="95.410156"/>
       <use xlink:href="#DejaVuSans-30" x="159.033203"/>
      </g>
     </g>
    </g>
    <g id="xtick_6">
     <g id="line2d_11">
      <path d="M 277.250362 99.322435 
L 277.250362 41.472 
" clip-path="url(#pdd4181ce09)" style="fill: none; stroke: #b0b0b0; stroke-width: 0.8; stroke-linecap: square"/>
     </g>
     <g id="line2d_12">
      <g>
       <use xlink:href="#m305400553e" x="277.250362" y="99.322435" style="stroke: #000000; stroke-width: 0.8"/>
      </g>
     </g>
     <g id="text_6">
      <!-- 0.25 -->
      <g transform="translate(266.11755 113.920872)scale(0.1 -0.1)">
       <use xlink:href="#DejaVuSans-30"/>
       <use xlink:href="#DejaVuSans-2e" x="63.623047"/>
       <use xlink:href="#DejaVuSans-32" x="95.410156"/>
       <use xlink:href="#DejaVuSans-35" x="159.033203"/>
      </g>
     </g>
    </g>
    <g id="xtick_7">
     <g id="line2d_13">
      <path d="M 317.933889 99.322435 
L 317.933889 41.472 
" clip-path="url(#pdd4181ce09)" style="fill: none; stroke: #b0b0b0; stroke-width: 0.8; stroke-linecap: square"/>
     </g>
     <g id="line2d_14">
      <g>
       <use xlink:href="#m305400553e" x="317.933889" y="99.322435" style="stroke: #000000; stroke-width: 0.8"/>
      </g>
     </g>
     <g id="text_7">
      <!-- 0.30 -->
      <g transform="translate(306.801077 113.920872)scale(0.1 -0.1)">
       <defs>
        <path id="DejaVuSans-33" d="M 2597 2516 
Q 3050 2419 3304 2112 
Q 3559 1806 3559 1356 
Q 3559 666 3084 287 
Q 2609 -91 1734 -91 
Q 1441 -91 1130 -33 
Q 819 25 488 141 
L 488 750 
Q 750 597 1062 519 
Q 1375 441 1716 441 
Q 2309 441 2620 675 
Q 2931 909 2931 1356 
Q 2931 1769 2642 2001 
Q 2353 2234 1838 2234 
L 1294 2234 
L 1294 2753 
L 1863 2753 
Q 2328 2753 2575 2939 
Q 2822 3125 2822 3475 
Q 2822 3834 2567 4026 
Q 2313 4219 1838 4219 
Q 1578 4219 1281 4162 
Q 984 4106 628 3988 
L 628 4550 
Q 988 4650 1302 4700 
Q 1616 4750 1894 4750 
Q 2613 4750 3031 4423 
Q 3450 4097 3450 3541 
Q 3450 3153 3228 2886 
Q 3006 2619 2597 2516 
z
" transform="scale(0.015625)"/>
       </defs>
       <use xlink:href="#DejaVuSans-30"/>
       <use xlink:href="#DejaVuSans-2e" x="63.623047"/>
       <use xlink:href="#DejaVuSans-33" x="95.410156"/>
       <use xlink:href="#DejaVuSans-30" x="159.033203"/>
      </g>
     </g>
    </g>
    <g id="xtick_8">
     <g id="line2d_15">
      <path d="M 358.617416 99.322435 
L 358.617416 41.472 
" clip-path="url(#pdd4181ce09)" style="fill: none; stroke: #b0b0b0; stroke-width: 0.8; stroke-linecap: square"/>
     </g>
     <g id="line2d_16">
      <g>
       <use xlink:href="#m305400553e" x="358.617416" y="99.322435" style="stroke: #000000; stroke-width: 0.8"/>
      </g>
     </g>
     <g id="text_8">
      <!-- 0.35 -->
      <g transform="translate(347.484604 113.920872)scale(0.1 -0.1)">
       <use xlink:href="#DejaVuSans-30"/>
       <use xlink:href="#DejaVuSans-2e" x="63.623047"/>
       <use xlink:href="#DejaVuSans-33" x="95.410156"/>
       <use xlink:href="#DejaVuSans-35" x="159.033203"/>
      </g>
     </g>
    </g>
    <g id="xtick_9">
     <g id="line2d_17">
      <path d="M 399.300943 99.322435 
L 399.300943 41.472 
" clip-path="url(#pdd4181ce09)" style="fill: none; stroke: #b0b0b0; stroke-width: 0.8; stroke-linecap: square"/>
     </g>
     <g id="line2d_18">
      <g>
       <use xlink:href="#m305400553e" x="399.300943" y="99.322435" style="stroke: #000000; stroke-width: 0.8"/>
      </g>
     </g>
     <g id="text_9">
      <!-- 0.40 -->
      <g transform="translate(388.168131 113.920872)scale(0.1 -0.1)">
       <defs>
        <path id="DejaVuSans-34" d="M 2419 4116 
L 825 1625 
L 2419 1625 
L 2419 4116 
z
M 2253 4666 
L 3047 4666 
L 3047 1625 
L 3713 1625 
L 3713 1100 
L 3047 1100 
L 3047 0 
L 2419 0 
L 2419 1100 
L 313 1100 
L 313 1709 
L 2253 4666 
z
" transform="scale(0.015625)"/>
       </defs>
       <use xlink:href="#DejaVuSans-30"/>
       <use xlink:href="#DejaVuSans-2e" x="63.623047"/>
       <use xlink:href="#DejaVuSans-34" x="95.410156"/>
       <use xlink:href="#DejaVuSans-30" x="159.033203"/>
      </g>
     </g>
    </g>
    <g id="text_10">
     <!-- time [s] -->
     <g transform="translate(216.768594 127.598997)scale(0.1 -0.1)">
      <defs>
       <path id="DejaVuSans-74" d="M 1172 4494 
L 1172 3500 
L 2356 3500 
L 2356 3053 
L 1172 3053 
L 1172 1153 
Q 1172 725 1289 603 
Q 1406 481 1766 481 
L 2356 481 
L 2356 0 
L 1766 0 
Q 1100 0 847 248 
Q 594 497 594 1153 
L 594 3053 
L 172 3053 
L 172 3500 
L 594 3500 
L 594 4494 
L 1172 4494 
z
" transform="scale(0.015625)"/>
       <path id="DejaVuSans-69" d="M 603 3500 
L 1178 3500 
L 1178 0 
L 603 0 
L 603 3500 
z
M 603 4863 
L 1178 4863 
L 1178 4134 
L 603 4134 
L 603 4863 
z
" transform="scale(0.015625)"/>
       <path id="DejaVuSans-6d" d="M 3328 2828 
Q 3544 3216 3844 3400 
Q 4144 3584 4550 3584 
Q 5097 3584 5394 3201 
Q 5691 2819 5691 2113 
L 5691 0 
L 5113 0 
L 5113 2094 
Q 5113 2597 4934 2840 
Q 4756 3084 4391 3084 
Q 3944 3084 3684 2787 
Q 3425 2491 3425 1978 
L 3425 0 
L 2847 0 
L 2847 2094 
Q 2847 2600 2669 2842 
Q 2491 3084 2119 3084 
Q 1678 3084 1418 2786 
Q 1159 2488 1159 1978 
L 1159 0 
L 581 0 
L 581 3500 
L 1159 3500 
L 1159 2956 
Q 1356 3278 1631 3431 
Q 1906 3584 2284 3584 
Q 2666 3584 2933 3390 
Q 3200 3197 3328 2828 
z
" transform="scale(0.015625)"/>
       <path id="DejaVuSans-65" d="M 3597 1894 
L 3597 1613 
L 953 1613 
Q 991 1019 1311 708 
Q 1631 397 2203 397 
Q 2534 397 2845 478 
Q 3156 559 3463 722 
L 3463 178 
Q 3153 47 2828 -22 
Q 2503 -91 2169 -91 
Q 1331 -91 842 396 
Q 353 884 353 1716 
Q 353 2575 817 3079 
Q 1281 3584 2069 3584 
Q 2775 3584 3186 3129 
Q 3597 2675 3597 1894 
z
M 3022 2063 
Q 3016 2534 2758 2815 
Q 2500 3097 2075 3097 
Q 1594 3097 1305 2825 
Q 1016 2553 972 2059 
L 3022 2063 
z
" transform="scale(0.015625)"/>
       <path id="DejaVuSans-20" transform="scale(0.015625)"/>
       <path id="DejaVuSans-5b" d="M 550 4863 
L 1875 4863 
L 1875 4416 
L 1125 4416 
L 1125 -397 
L 1875 -397 
L 1875 -844 
L 550 -844 
L 550 4863 
z
" transform="scale(0.015625)"/>
       <path id="DejaVuSans-73" d="M 2834 3397 
L 2834 2853 
Q 2591 2978 2328 3040 
Q 2066 3103 1784 3103 
Q 1356 3103 1142 2972 
Q 928 2841 928 2578 
Q 928 2378 1081 2264 
Q 1234 2150 1697 2047 
L 1894 2003 
Q 2506 1872 2764 1633 
Q 3022 1394 3022 966 
Q 3022 478 2636 193 
Q 2250 -91 1575 -91 
Q 1294 -91 989 -36 
Q 684 19 347 128 
L 347 722 
Q 666 556 975 473 
Q 1284 391 1588 391 
Q 1994 391 2212 530 
Q 2431 669 2431 922 
Q 2431 1156 2273 1281 
Q 2116 1406 1581 1522 
L 1381 1569 
Q 847 1681 609 1914 
Q 372 2147 372 2553 
Q 372 3047 722 3315 
Q 1072 3584 1716 3584 
Q 2034 3584 2315 3537 
Q 2597 3491 2834 3397 
z
" transform="scale(0.015625)"/>
       <path id="DejaVuSans-5d" d="M 1947 4863 
L 1947 -844 
L 622 -844 
L 622 -397 
L 1369 -397 
L 1369 4416 
L 622 4416 
L 622 4863 
L 1947 4863 
z
" transform="scale(0.015625)"/>
      </defs>
      <use xlink:href="#DejaVuSans-74"/>
      <use xlink:href="#DejaVuSans-69" x="39.208984"/>
      <use xlink:href="#DejaVuSans-6d" x="66.992188"/>
      <use xlink:href="#DejaVuSans-65" x="164.404297"/>
      <use xlink:href="#DejaVuSans-20" x="225.927734"/>
      <use xlink:href="#DejaVuSans-5b" x="257.714844"/>
      <use xlink:href="#DejaVuSans-73" x="296.728516"/>
      <use xlink:href="#DejaVuSans-5d" x="348.828125"/>
     </g>
    </g>
   </g>
   <g id="matplotlib.axis_2">
    <g id="ytick_1">
     <g id="line2d_19">
      <path d="M 57.6 96.69287 
L 414.72 96.69287 
" clip-path="url(#pdd4181ce09)" style="fill: none; stroke: #b0b0b0; stroke-width: 0.8; stroke-linecap: square"/>
     </g>
     <g id="line2d_20">
      <defs>
       <path id="m7a89cc0087" d="M 0 0 
L -3.5 0 
" style="stroke: #000000; stroke-width: 0.8"/>
      </defs>
      <g>
       <use xlink:href="#m7a89cc0087" x="57.6" y="96.69287" style="stroke: #000000; stroke-width: 0.8"/>
      </g>
     </g>
     <g id="text_11">
      <!-- 1.00 -->
      <g transform="translate(28.334375 100.492088)scale(0.1 -0.1)">
       <use xlink:href="#DejaVuSans-31"/>
       <use xlink:href="#DejaVuSans-2e" x="63.623047"/>
       <use xlink:href="#DejaVuSans-30" x="95.410156"/>
       <use xlink:href="#DejaVuSans-30" x="159.033203"/>
      </g>
     </g>
    </g>
    <g id="ytick_2">
     <g id="line2d_21">
      <path d="M 57.6 43.103255 
L 414.72 43.103255 
" clip-path="url(#pdd4181ce09)" style="fill: none; stroke: #b0b0b0; stroke-width: 0.8; stroke-linecap: square"/>
     </g>
     <g id="line2d_22">
      <g>
       <use xlink:href="#m7a89cc0087" x="57.6" y="43.103255" style="stroke: #000000; stroke-width: 0.8"/>
      </g>
     </g>
     <g id="text_12">
      <!-- 1.01 -->
      <g transform="translate(28.334375 46.902473)scale(0.1 -0.1)">
       <use xlink:href="#DejaVuSans-31"/>
       <use xlink:href="#DejaVuSans-2e" x="63.623047"/>
       <use xlink:href="#DejaVuSans-30" x="95.410156"/>
       <use xlink:href="#DejaVuSans-31" x="159.033203"/>
      </g>
     </g>
    </g>
    <g id="text_13">
     <!-- Altitude [m] -->
     <g transform="translate(22.254687 100.296436)rotate(-90)scale(0.1 -0.1)">
      <defs>
       <path id="DejaVuSans-41" d="M 2188 4044 
L 1331 1722 
L 3047 1722 
L 2188 4044 
z
M 1831 4666 
L 2547 4666 
L 4325 0 
L 3669 0 
L 3244 1197 
L 1141 1197 
L 716 0 
L 50 0 
L 1831 4666 
z
" transform="scale(0.015625)"/>
       <path id="DejaVuSans-6c" d="M 603 4863 
L 1178 4863 
L 1178 0 
L 603 0 
L 603 4863 
z
" transform="scale(0.015625)"/>
       <path id="DejaVuSans-75" d="M 544 1381 
L 544 3500 
L 1119 3500 
L 1119 1403 
Q 1119 906 1312 657 
Q 1506 409 1894 409 
Q 2359 409 2629 706 
Q 2900 1003 2900 1516 
L 2900 3500 
L 3475 3500 
L 3475 0 
L 2900 0 
L 2900 538 
Q 2691 219 2414 64 
Q 2138 -91 1772 -91 
Q 1169 -91 856 284 
Q 544 659 544 1381 
z
M 1991 3584 
L 1991 3584 
z
" transform="scale(0.015625)"/>
       <path id="DejaVuSans-64" d="M 2906 2969 
L 2906 4863 
L 3481 4863 
L 3481 0 
L 2906 0 
L 2906 525 
Q 2725 213 2448 61 
Q 2172 -91 1784 -91 
Q 1150 -91 751 415 
Q 353 922 353 1747 
Q 353 2572 751 3078 
Q 1150 3584 1784 3584 
Q 2172 3584 2448 3432 
Q 2725 3281 2906 2969 
z
M 947 1747 
Q 947 1113 1208 752 
Q 1469 391 1925 391 
Q 2381 391 2643 752 
Q 2906 1113 2906 1747 
Q 2906 2381 2643 2742 
Q 2381 3103 1925 3103 
Q 1469 3103 1208 2742 
Q 947 2381 947 1747 
z
" transform="scale(0.015625)"/>
      </defs>
      <use xlink:href="#DejaVuSans-41"/>
      <use xlink:href="#DejaVuSans-6c" x="68.408203"/>
      <use xlink:href="#DejaVuSans-74" x="96.191406"/>
      <use xlink:href="#DejaVuSans-69" x="135.400391"/>
      <use xlink:href="#DejaVuSans-74" x="163.183594"/>
      <use xlink:href="#DejaVuSans-75" x="202.392578"/>
      <use xlink:href="#DejaVuSans-64" x="265.771484"/>
      <use xlink:href="#DejaVuSans-65" x="329.248047"/>
      <use xlink:href="#DejaVuSans-20" x="390.771484"/>
      <use xlink:href="#DejaVuSans-5b" x="422.558594"/>
      <use xlink:href="#DejaVuSans-6d" x="461.572266"/>
      <use xlink:href="#DejaVuSans-5d" x="558.984375"/>
     </g>
    </g>
   </g>
   <g id="line2d_23">
    <path d="M 73.832727 96.69287 
L 80.342092 96.601192 
L 86.037785 96.30483 
L 92.54715 95.692873 
L 99.870185 94.762007 
L 108.00689 93.350725 
L 118.584607 91.02203 
L 128.348653 88.391764 
L 134.858018 86.314714 
L 142.994723 83.463431 
L 147.063076 81.838231 
L 151.945099 79.623083 
L 155.199781 77.925658 
L 161.709146 74.172624 
L 166.591169 71.032935 
L 171.473192 67.763249 
L 176.355215 64.753665 
L 181.237239 61.97886 
L 186.932932 59.017952 
L 192.628626 56.34046 
L 198.32432 53.937085 
L 204.020014 51.801986 
L 209.715707 49.931399 
L 215.411401 48.322853 
L 221.107095 46.974699 
L 226.802789 45.885824 
L 232.498483 45.055479 
L 238.194176 44.483167 
L 243.88987 44.168578 
L 249.585564 44.111548 
L 255.281258 44.312024 
L 260.976951 44.769949 
L 266.672645 45.485188 
L 272.368339 46.457499 
L 278.064033 47.686486 
L 283.759727 49.171524 
L 289.45542 50.911643 
L 295.151114 52.90534 
L 300.846808 55.150294 
L 306.542502 57.642907 
L 312.238195 60.377605 
L 317.933889 63.345728 
L 324.443254 67.006163 
L 330.952618 70.921614 
L 339.089323 76.093324 
L 357.803746 88.143847 
L 363.49944 91.469087 
L 368.381463 94.070101 
L 373.263486 96.413539 
L 374.077157 96.69287 
L 398.487273 96.69287 
L 398.487273 96.69287 
" clip-path="url(#pdd4181ce09)" style="fill: none; stroke: #1f77b4; stroke-width: 1.5; stroke-linecap: square"/>
   </g>
   <g id="patch_3">
    <path d="M 57.6 99.322435 
L 57.6 41.472 
" style="fill: none; stroke: #000000; stroke-width: 0.8; stroke-linejoin: miter; stroke-linecap: square"/>
   </g>
   <g id="patch_4">
    <path d="M 414.72 99.322435 
L 414.72 41.472 
" style="fill: none; stroke: #000000; stroke-width: 0.8; stroke-linejoin: miter; stroke-linecap: square"/>
   </g>
   <g id="patch_5">
    <path d="M 57.6 99.322435 
L 414.72 99.322435 
" style="fill: none; stroke: #000000; stroke-width: 0.8; stroke-linejoin: miter; stroke-linecap: square"/>
   </g>
   <g id="patch_6">
    <path d="M 57.6 41.472 
L 414.72 41.472 
" style="fill: none; stroke: #000000; stroke-width: 0.8; stroke-linejoin: miter; stroke-linecap: square"/>
   </g>
  </g>
  <g id="axes_2">
   <g id="patch_7">
    <path d="M 57.6 168.742957 
L 414.72 168.742957 
L 414.72 110.892522 
L 57.6 110.892522 
z
" style="fill: #ffffff"/>
   </g>
   <g id="matplotlib.axis_3">
    <g id="xtick_10">
     <g id="line2d_24">
      <path d="M 73.832727 168.742957 
L 73.832727 110.892522 
" clip-path="url(#p3e2e7f9099)" style="fill: none; stroke: #b0b0b0; stroke-width: 0.8; stroke-linecap: square"/>
     </g>
     <g id="line2d_25">
      <g>
       <use xlink:href="#m305400553e" x="73.832727" y="168.742957" style="stroke: #000000; stroke-width: 0.8"/>
      </g>
     </g>
     <g id="text_14">
      <!-- 0.00 -->
      <g transform="translate(62.699915 183.341394)scale(0.1 -0.1)">
       <use xlink:href="#DejaVuSans-30"/>
       <use xlink:href="#DejaVuSans-2e" x="63.623047"/>
       <use xlink:href="#DejaVuSans-30" x="95.410156"/>
       <use xlink:href="#DejaVuSans-30" x="159.033203"/>
      </g>
     </g>
    </g>
    <g id="xtick_11">
     <g id="line2d_26">
      <path d="M 114.516254 168.742957 
L 114.516254 110.892522 
" clip-path="url(#p3e2e7f9099)" style="fill: none; stroke: #b0b0b0; stroke-width: 0.8; stroke-linecap: square"/>
     </g>
     <g id="line2d_27">
      <g>
       <use xlink:href="#m305400553e" x="114.516254" y="168.742957" style="stroke: #000000; stroke-width: 0.8"/>
      </g>
     </g>
     <g id="text_15">
      <!-- 0.05 -->
      <g transform="translate(103.383442 183.341394)scale(0.1 -0.1)">
       <use xlink:href="#DejaVuSans-30"/>
       <use xlink:href="#DejaVuSans-2e" x="63.623047"/>
       <use xlink:href="#DejaVuSans-30" x="95.410156"/>
       <use xlink:href="#DejaVuSans-35" x="159.033203"/>
      </g>
     </g>
    </g>
    <g id="xtick_12">
     <g id="line2d_28">
      <path d="M 155.199781 168.742957 
L 155.199781 110.892522 
" clip-path="url(#p3e2e7f9099)" style="fill: none; stroke: #b0b0b0; stroke-width: 0.8; stroke-linecap: square"/>
     </g>
     <g id="line2d_29">
      <g>
       <use xlink:href="#m305400553e" x="155.199781" y="168.742957" style="stroke: #000000; stroke-width: 0.8"/>
      </g>
     </g>
     <g id="text_16">
      <!-- 0.10 -->
      <g transform="translate(144.066969 183.341394)scale(0.1 -0.1)">
       <use xlink:href="#DejaVuSans-30"/>
       <use xlink:href="#DejaVuSans-2e" x="63.623047"/>
       <use xlink:href="#DejaVuSans-31" x="95.410156"/>
       <use xlink:href="#DejaVuSans-30" x="159.033203"/>
      </g>
     </g>
    </g>
    <g id="xtick_13">
     <g id="line2d_30">
      <path d="M 195.883308 168.742957 
L 195.883308 110.892522 
" clip-path="url(#p3e2e7f9099)" style="fill: none; stroke: #b0b0b0; stroke-width: 0.8; stroke-linecap: square"/>
     </g>
     <g id="line2d_31">
      <g>
       <use xlink:href="#m305400553e" x="195.883308" y="168.742957" style="stroke: #000000; stroke-width: 0.8"/>
      </g>
     </g>
     <g id="text_17">
      <!-- 0.15 -->
      <g transform="translate(184.750496 183.341394)scale(0.1 -0.1)">
       <use xlink:href="#DejaVuSans-30"/>
       <use xlink:href="#DejaVuSans-2e" x="63.623047"/>
       <use xlink:href="#DejaVuSans-31" x="95.410156"/>
       <use xlink:href="#DejaVuSans-35" x="159.033203"/>
      </g>
     </g>
    </g>
    <g id="xtick_14">
     <g id="line2d_32">
      <path d="M 236.566835 168.742957 
L 236.566835 110.892522 
" clip-path="url(#p3e2e7f9099)" style="fill: none; stroke: #b0b0b0; stroke-width: 0.8; stroke-linecap: square"/>
     </g>
     <g id="line2d_33">
      <g>
       <use xlink:href="#m305400553e" x="236.566835" y="168.742957" style="stroke: #000000; stroke-width: 0.8"/>
      </g>
     </g>
     <g id="text_18">
      <!-- 0.20 -->
      <g transform="translate(225.434023 183.341394)scale(0.1 -0.1)">
       <use xlink:href="#DejaVuSans-30"/>
       <use xlink:href="#DejaVuSans-2e" x="63.623047"/>
       <use xlink:href="#DejaVuSans-32" x="95.410156"/>
       <use xlink:href="#DejaVuSans-30" x="159.033203"/>
      </g>
     </g>
    </g>
    <g id="xtick_15">
     <g id="line2d_34">
      <path d="M 277.250362 168.742957 
L 277.250362 110.892522 
" clip-path="url(#p3e2e7f9099)" style="fill: none; stroke: #b0b0b0; stroke-width: 0.8; stroke-linecap: square"/>
     </g>
     <g id="line2d_35">
      <g>
       <use xlink:href="#m305400553e" x="277.250362" y="168.742957" style="stroke: #000000; stroke-width: 0.8"/>
      </g>
     </g>
     <g id="text_19">
      <!-- 0.25 -->
      <g transform="translate(266.11755 183.341394)scale(0.1 -0.1)">
       <use xlink:href="#DejaVuSans-30"/>
       <use xlink:href="#DejaVuSans-2e" x="63.623047"/>
       <use xlink:href="#DejaVuSans-32" x="95.410156"/>
       <use xlink:href="#DejaVuSans-35" x="159.033203"/>
      </g>
     </g>
    </g>
    <g id="xtick_16">
     <g id="line2d_36">
      <path d="M 317.933889 168.742957 
L 317.933889 110.892522 
" clip-path="url(#p3e2e7f9099)" style="fill: none; stroke: #b0b0b0; stroke-width: 0.8; stroke-linecap: square"/>
     </g>
     <g id="line2d_37">
      <g>
       <use xlink:href="#m305400553e" x="317.933889" y="168.742957" style="stroke: #000000; stroke-width: 0.8"/>
      </g>
     </g>
     <g id="text_20">
      <!-- 0.30 -->
      <g transform="translate(306.801077 183.341394)scale(0.1 -0.1)">
       <use xlink:href="#DejaVuSans-30"/>
       <use xlink:href="#DejaVuSans-2e" x="63.623047"/>
       <use xlink:href="#DejaVuSans-33" x="95.410156"/>
       <use xlink:href="#DejaVuSans-30" x="159.033203"/>
      </g>
     </g>
    </g>
    <g id="xtick_17">
     <g id="line2d_38">
      <path d="M 358.617416 168.742957 
L 358.617416 110.892522 
" clip-path="url(#p3e2e7f9099)" style="fill: none; stroke: #b0b0b0; stroke-width: 0.8; stroke-linecap: square"/>
     </g>
     <g id="line2d_39">
      <g>
       <use xlink:href="#m305400553e" x="358.617416" y="168.742957" style="stroke: #000000; stroke-width: 0.8"/>
      </g>
     </g>
     <g id="text_21">
      <!-- 0.35 -->
      <g transform="translate(347.484604 183.341394)scale(0.1 -0.1)">
       <use xlink:href="#DejaVuSans-30"/>
       <use xlink:href="#DejaVuSans-2e" x="63.623047"/>
       <use xlink:href="#DejaVuSans-33" x="95.410156"/>
       <use xlink:href="#DejaVuSans-35" x="159.033203"/>
      </g>
     </g>
    </g>
    <g id="xtick_18">
     <g id="line2d_40">
      <path d="M 399.300943 168.742957 
L 399.300943 110.892522 
" clip-path="url(#p3e2e7f9099)" style="fill: none; stroke: #b0b0b0; stroke-width: 0.8; stroke-linecap: square"/>
     </g>
     <g id="line2d_41">
      <g>
       <use xlink:href="#m305400553e" x="399.300943" y="168.742957" style="stroke: #000000; stroke-width: 0.8"/>
      </g>
     </g>
     <g id="text_22">
      <!-- 0.40 -->
      <g transform="translate(388.168131 183.341394)scale(0.1 -0.1)">
       <use xlink:href="#DejaVuSans-30"/>
       <use xlink:href="#DejaVuSans-2e" x="63.623047"/>
       <use xlink:href="#DejaVuSans-34" x="95.410156"/>
       <use xlink:href="#DejaVuSans-30" x="159.033203"/>
      </g>
     </g>
    </g>
    <g id="text_23">
     <!-- time [s] -->
     <g transform="translate(216.768594 197.019519)scale(0.1 -0.1)">
      <use xlink:href="#DejaVuSans-74"/>
      <use xlink:href="#DejaVuSans-69" x="39.208984"/>
      <use xlink:href="#DejaVuSans-6d" x="66.992188"/>
      <use xlink:href="#DejaVuSans-65" x="164.404297"/>
      <use xlink:href="#DejaVuSans-20" x="225.927734"/>
      <use xlink:href="#DejaVuSans-5b" x="257.714844"/>
      <use xlink:href="#DejaVuSans-73" x="296.728516"/>
      <use xlink:href="#DejaVuSans-5d" x="348.828125"/>
     </g>
    </g>
   </g>
   <g id="matplotlib.axis_4">
    <g id="ytick_3">
     <g id="line2d_42">
      <path d="M 57.6 166.220685 
L 414.72 166.220685 
" clip-path="url(#p3e2e7f9099)" style="fill: none; stroke: #b0b0b0; stroke-width: 0.8; stroke-linecap: square"/>
     </g>
     <g id="line2d_43">
      <g>
       <use xlink:href="#m7a89cc0087" x="57.6" y="166.220685" style="stroke: #000000; stroke-width: 0.8"/>
      </g>
     </g>
     <g id="text_24">
      <!-- −0.1 -->
      <g transform="translate(26.317187 170.019904)scale(0.1 -0.1)">
       <defs>
        <path id="DejaVuSans-2212" d="M 678 2272 
L 4684 2272 
L 4684 1741 
L 678 1741 
L 678 2272 
z
" transform="scale(0.015625)"/>
       </defs>
       <use xlink:href="#DejaVuSans-2212"/>
       <use xlink:href="#DejaVuSans-30" x="83.789062"/>
       <use xlink:href="#DejaVuSans-2e" x="147.412109"/>
       <use xlink:href="#DejaVuSans-31" x="179.199219"/>
      </g>
     </g>
    </g>
    <g id="ytick_4">
     <g id="line2d_44">
      <path d="M 57.6 140.557226 
L 414.72 140.557226 
" clip-path="url(#p3e2e7f9099)" style="fill: none; stroke: #b0b0b0; stroke-width: 0.8; stroke-linecap: square"/>
     </g>
     <g id="line2d_45">
      <g>
       <use xlink:href="#m7a89cc0087" x="57.6" y="140.557226" style="stroke: #000000; stroke-width: 0.8"/>
      </g>
     </g>
     <g id="text_25">
      <!-- 0.0 -->
      <g transform="translate(34.696875 144.356445)scale(0.1 -0.1)">
       <use xlink:href="#DejaVuSans-30"/>
       <use xlink:href="#DejaVuSans-2e" x="63.623047"/>
       <use xlink:href="#DejaVuSans-30" x="95.410156"/>
      </g>
     </g>
    </g>
    <g id="ytick_5">
     <g id="line2d_46">
      <path d="M 57.6 114.893768 
L 414.72 114.893768 
" clip-path="url(#p3e2e7f9099)" style="fill: none; stroke: #b0b0b0; stroke-width: 0.8; stroke-linecap: square"/>
     </g>
     <g id="line2d_47">
      <g>
       <use xlink:href="#m7a89cc0087" x="57.6" y="114.893768" style="stroke: #000000; stroke-width: 0.8"/>
      </g>
     </g>
     <g id="text_26">
      <!-- 0.1 -->
      <g transform="translate(34.696875 118.692986)scale(0.1 -0.1)">
       <use xlink:href="#DejaVuSans-30"/>
       <use xlink:href="#DejaVuSans-2e" x="63.623047"/>
       <use xlink:href="#DejaVuSans-31" x="95.410156"/>
      </g>
     </g>
    </g>
    <g id="text_27">
     <!-- Velocity [m/s] -->
     <g transform="translate(20.2375 174.083364)rotate(-90)scale(0.1 -0.1)">
      <defs>
       <path id="DejaVuSans-56" d="M 1831 0 
L 50 4666 
L 709 4666 
L 2188 738 
L 3669 4666 
L 4325 4666 
L 2547 0 
L 1831 0 
z
" transform="scale(0.015625)"/>
       <path id="DejaVuSans-6f" d="M 1959 3097 
Q 1497 3097 1228 2736 
Q 959 2375 959 1747 
Q 959 1119 1226 758 
Q 1494 397 1959 397 
Q 2419 397 2687 759 
Q 2956 1122 2956 1747 
Q 2956 2369 2687 2733 
Q 2419 3097 1959 3097 
z
M 1959 3584 
Q 2709 3584 3137 3096 
Q 3566 2609 3566 1747 
Q 3566 888 3137 398 
Q 2709 -91 1959 -91 
Q 1206 -91 779 398 
Q 353 888 353 1747 
Q 353 2609 779 3096 
Q 1206 3584 1959 3584 
z
" transform="scale(0.015625)"/>
       <path id="DejaVuSans-63" d="M 3122 3366 
L 3122 2828 
Q 2878 2963 2633 3030 
Q 2388 3097 2138 3097 
Q 1578 3097 1268 2742 
Q 959 2388 959 1747 
Q 959 1106 1268 751 
Q 1578 397 2138 397 
Q 2388 397 2633 464 
Q 2878 531 3122 666 
L 3122 134 
Q 2881 22 2623 -34 
Q 2366 -91 2075 -91 
Q 1284 -91 818 406 
Q 353 903 353 1747 
Q 353 2603 823 3093 
Q 1294 3584 2113 3584 
Q 2378 3584 2631 3529 
Q 2884 3475 3122 3366 
z
" transform="scale(0.015625)"/>
       <path id="DejaVuSans-79" d="M 2059 -325 
Q 1816 -950 1584 -1140 
Q 1353 -1331 966 -1331 
L 506 -1331 
L 506 -850 
L 844 -850 
Q 1081 -850 1212 -737 
Q 1344 -625 1503 -206 
L 1606 56 
L 191 3500 
L 800 3500 
L 1894 763 
L 2988 3500 
L 3597 3500 
L 2059 -325 
z
" transform="scale(0.015625)"/>
       <path id="DejaVuSans-2f" d="M 1625 4666 
L 2156 4666 
L 531 -594 
L 0 -594 
L 1625 4666 
z
" transform="scale(0.015625)"/>
      </defs>
      <use xlink:href="#DejaVuSans-56"/>
      <use xlink:href="#DejaVuSans-65" x="60.658203"/>
      <use xlink:href="#DejaVuSans-6c" x="122.181641"/>
      <use xlink:href="#DejaVuSans-6f" x="149.964844"/>
      <use xlink:href="#DejaVuSans-63" x="211.146484"/>
      <use xlink:href="#DejaVuSans-69" x="266.126953"/>
      <use xlink:href="#DejaVuSans-74" x="293.910156"/>
      <use xlink:href="#DejaVuSans-79" x="333.119141"/>
      <use xlink:href="#DejaVuSans-20" x="392.298828"/>
      <use xlink:href="#DejaVuSans-5b" x="424.085938"/>
      <use xlink:href="#DejaVuSans-6d" x="463.099609"/>
      <use xlink:href="#DejaVuSans-2f" x="560.511719"/>
      <use xlink:href="#DejaVuSans-73" x="594.203125"/>
      <use xlink:href="#DejaVuSans-5d" x="646.302734"/>
     </g>
    </g>
   </g>
   <g id="line2d_48">
    <path d="M 73.832727 140.557226 
L 74.646398 140.344665 
L 75.460068 140.557226 
L 76.273739 140.117282 
L 77.087409 140.097596 
L 77.90108 139.509685 
L 78.714751 139.397518 
L 79.528421 139.486264 
L 81.155762 138.920582 
L 81.969433 139.076807 
L 82.783103 138.46791 
L 83.596774 138.376916 
L 85.224115 137.654376 
L 86.037785 137.40044 
L 86.851456 137.443667 
L 87.665126 136.794313 
L 88.478797 136.760064 
L 90.106138 137.016938 
L 90.919809 136.32997 
L 91.733479 136.559123 
L 92.54715 136.01375 
L 94.174491 136.177004 
L 94.988161 136.4144 
L 95.801832 136.081924 
L 96.615502 135.376162 
L 97.429173 135.192459 
L 99.056514 134.341305 
L 100.683855 134.119929 
L 101.497526 134.276646 
L 102.311196 134.312667 
L 103.124867 133.871128 
L 103.938537 134.016631 
L 104.752208 133.959043 
L 105.565878 133.356887 
L 106.379549 132.966363 
L 107.193219 132.930998 
L 108.00689 132.289602 
L 108.82056 132.602697 
L 109.634231 132.794592 
L 110.447902 132.526033 
L 112.888913 132.878288 
L 113.702584 132.286143 
L 115.329925 130.81703 
L 116.957266 131.083283 
L 117.770936 130.422757 
L 118.584607 130.479702 
L 119.398278 130.766177 
L 120.211948 130.848822 
L 121.025619 130.598239 
L 121.839289 130.734512 
L 122.65296 130.222281 
L 123.46663 130.099518 
L 124.280301 130.264072 
L 125.907642 129.379821 
L 126.721312 129.163552 
L 127.534983 128.385693 
L 128.348653 128.687298 
L 129.162324 128.228186 
L 129.975995 127.940069 
L 130.789665 128.300329 
L 131.603336 127.728808 
L 132.417006 128.034498 
L 133.230677 127.992349 
L 134.044347 128.078705 
L 134.858018 127.393921 
L 135.671688 127.695919 
L 136.485359 127.073015 
L 137.299029 126.7592 
L 138.1127 127.009064 
L 138.92637 126.556883 
L 140.553712 127.048314 
L 141.367382 126.261684 
L 142.181053 126.400656 
L 143.808394 125.222289 
L 144.622064 125.140649 
L 145.435735 124.431145 
L 146.249405 124.328939 
L 147.063076 123.510202 
L 147.876746 123.802871 
L 148.690417 123.119521 
L 149.504087 122.687655 
L 150.317758 122.534393 
L 151.131429 121.607782 
L 152.75877 120.632771 
L 153.57244 119.818616 
L 154.386111 119.354315 
L 155.199781 118.657172 
L 156.013452 118.604945 
L 157.640793 118.848698 
L 158.454463 118.005356 
L 159.268134 117.426854 
L 160.081805 117.61829 
L 160.895475 116.793301 
L 161.709146 116.427525 
L 162.522816 115.685442 
L 163.336487 115.473156 
L 164.963828 115.490388 
L 166.591169 113.522087 
L 170.659522 115.367725 
L 175.541545 117.342588 
L 182.050909 119.734899 
L 191.814956 123.051689 
L 206.461025 127.760719 
L 234.939494 136.641972 
L 295.964785 155.427358 
L 310.610854 159.732181 
L 319.56123 162.165627 
L 326.070595 163.740024 
L 331.766288 164.891876 
L 336.648312 165.630286 
L 340.716664 166.007017 
L 343.971347 166.113391 
L 347.226029 166.017008 
L 350.480711 165.695531 
L 353.735393 165.136182 
L 356.990075 164.340647 
L 360.244757 163.328512 
L 364.31311 161.817833 
L 370.822474 159.086665 
L 374.077157 157.700727 
L 374.890827 140.557226 
L 375.704498 140.813861 
L 376.518168 140.557226 
L 377.331839 140.813861 
L 378.145509 140.557226 
L 378.95918 140.813861 
L 379.77285 140.557226 
L 380.586521 140.813861 
L 381.400191 140.557226 
L 382.213862 140.813861 
L 383.027532 140.557226 
L 383.841203 140.813861 
L 384.654874 140.557226 
L 385.468544 140.813861 
L 386.282215 140.557226 
L 387.095885 140.813861 
L 387.909556 140.557226 
L 388.723226 140.813861 
L 389.536897 140.557226 
L 390.350567 140.813861 
L 391.164238 140.557226 
L 391.977908 140.813861 
L 392.791579 140.557226 
L 393.605249 140.813861 
L 394.41892 140.557226 
L 395.232591 140.813861 
L 396.046261 140.557226 
L 396.859932 140.813861 
L 397.673602 140.557226 
L 398.487273 140.813861 
L 398.487273 140.813861 
" clip-path="url(#p3e2e7f9099)" style="fill: none; stroke: #1f77b4; stroke-width: 1.5; stroke-linecap: square"/>
   </g>
   <g id="patch_8">
    <path d="M 57.6 168.742957 
L 57.6 110.892522 
" style="fill: none; stroke: #000000; stroke-width: 0.8; stroke-linejoin: miter; stroke-linecap: square"/>
   </g>
   <g id="patch_9">
    <path d="M 414.72 168.742957 
L 414.72 110.892522 
" style="fill: none; stroke: #000000; stroke-width: 0.8; stroke-linejoin: miter; stroke-linecap: square"/>
   </g>
   <g id="patch_10">
    <path d="M 57.6 168.742957 
L 414.72 168.742957 
" style="fill: none; stroke: #000000; stroke-width: 0.8; stroke-linejoin: miter; stroke-linecap: square"/>
   </g>
   <g id="patch_11">
    <path d="M 57.6 110.892522 
L 414.72 110.892522 
" style="fill: none; stroke: #000000; stroke-width: 0.8; stroke-linejoin: miter; stroke-linecap: square"/>
   </g>
  </g>
  <g id="axes_3">
   <g id="patch_12">
    <path d="M 57.6 238.163478 
L 414.72 238.163478 
L 414.72 180.313043 
L 57.6 180.313043 
z
" style="fill: #ffffff"/>
   </g>
   <g id="matplotlib.axis_5">
    <g id="xtick_19">
     <g id="line2d_49">
      <path d="M 73.832727 238.163478 
L 73.832727 180.313043 
" clip-path="url(#pa0c9da86db)" style="fill: none; stroke: #b0b0b0; stroke-width: 0.8; stroke-linecap: square"/>
     </g>
     <g id="line2d_50">
      <g>
       <use xlink:href="#m305400553e" x="73.832727" y="238.163478" style="stroke: #000000; stroke-width: 0.8"/>
      </g>
     </g>
     <g id="text_28">
      <!-- 0.00 -->
      <g transform="translate(62.699915 252.761916)scale(0.1 -0.1)">
       <use xlink:href="#DejaVuSans-30"/>
       <use xlink:href="#DejaVuSans-2e" x="63.623047"/>
       <use xlink:href="#DejaVuSans-30" x="95.410156"/>
       <use xlink:href="#DejaVuSans-30" x="159.033203"/>
      </g>
     </g>
    </g>
    <g id="xtick_20">
     <g id="line2d_51">
      <path d="M 114.516254 238.163478 
L 114.516254 180.313043 
" clip-path="url(#pa0c9da86db)" style="fill: none; stroke: #b0b0b0; stroke-width: 0.8; stroke-linecap: square"/>
     </g>
     <g id="line2d_52">
      <g>
       <use xlink:href="#m305400553e" x="114.516254" y="238.163478" style="stroke: #000000; stroke-width: 0.8"/>
      </g>
     </g>
     <g id="text_29">
      <!-- 0.05 -->
      <g transform="translate(103.383442 252.761916)scale(0.1 -0.1)">
       <use xlink:href="#DejaVuSans-30"/>
       <use xlink:href="#DejaVuSans-2e" x="63.623047"/>
       <use xlink:href="#DejaVuSans-30" x="95.410156"/>
       <use xlink:href="#DejaVuSans-35" x="159.033203"/>
      </g>
     </g>
    </g>
    <g id="xtick_21">
     <g id="line2d_53">
      <path d="M 155.199781 238.163478 
L 155.199781 180.313043 
" clip-path="url(#pa0c9da86db)" style="fill: none; stroke: #b0b0b0; stroke-width: 0.8; stroke-linecap: square"/>
     </g>
     <g id="line2d_54">
      <g>
       <use xlink:href="#m305400553e" x="155.199781" y="238.163478" style="stroke: #000000; stroke-width: 0.8"/>
      </g>
     </g>
     <g id="text_30">
      <!-- 0.10 -->
      <g transform="translate(144.066969 252.761916)scale(0.1 -0.1)">
       <use xlink:href="#DejaVuSans-30"/>
       <use xlink:href="#DejaVuSans-2e" x="63.623047"/>
       <use xlink:href="#DejaVuSans-31" x="95.410156"/>
       <use xlink:href="#DejaVuSans-30" x="159.033203"/>
      </g>
     </g>
    </g>
    <g id="xtick_22">
     <g id="line2d_55">
      <path d="M 195.883308 238.163478 
L 195.883308 180.313043 
" clip-path="url(#pa0c9da86db)" style="fill: none; stroke: #b0b0b0; stroke-width: 0.8; stroke-linecap: square"/>
     </g>
     <g id="line2d_56">
      <g>
       <use xlink:href="#m305400553e" x="195.883308" y="238.163478" style="stroke: #000000; stroke-width: 0.8"/>
      </g>
     </g>
     <g id="text_31">
      <!-- 0.15 -->
      <g transform="translate(184.750496 252.761916)scale(0.1 -0.1)">
       <use xlink:href="#DejaVuSans-30"/>
       <use xlink:href="#DejaVuSans-2e" x="63.623047"/>
       <use xlink:href="#DejaVuSans-31" x="95.410156"/>
       <use xlink:href="#DejaVuSans-35" x="159.033203"/>
      </g>
     </g>
    </g>
    <g id="xtick_23">
     <g id="line2d_57">
      <path d="M 236.566835 238.163478 
L 236.566835 180.313043 
" clip-path="url(#pa0c9da86db)" style="fill: none; stroke: #b0b0b0; stroke-width: 0.8; stroke-linecap: square"/>
     </g>
     <g id="line2d_58">
      <g>
       <use xlink:href="#m305400553e" x="236.566835" y="238.163478" style="stroke: #000000; stroke-width: 0.8"/>
      </g>
     </g>
     <g id="text_32">
      <!-- 0.20 -->
      <g transform="translate(225.434023 252.761916)scale(0.1 -0.1)">
       <use xlink:href="#DejaVuSans-30"/>
       <use xlink:href="#DejaVuSans-2e" x="63.623047"/>
       <use xlink:href="#DejaVuSans-32" x="95.410156"/>
       <use xlink:href="#DejaVuSans-30" x="159.033203"/>
      </g>
     </g>
    </g>
    <g id="xtick_24">
     <g id="line2d_59">
      <path d="M 277.250362 238.163478 
L 277.250362 180.313043 
" clip-path="url(#pa0c9da86db)" style="fill: none; stroke: #b0b0b0; stroke-width: 0.8; stroke-linecap: square"/>
     </g>
     <g id="line2d_60">
      <g>
       <use xlink:href="#m305400553e" x="277.250362" y="238.163478" style="stroke: #000000; stroke-width: 0.8"/>
      </g>
     </g>
     <g id="text_33">
      <!-- 0.25 -->
      <g transform="translate(266.11755 252.761916)scale(0.1 -0.1)">
       <use xlink:href="#DejaVuSans-30"/>
       <use xlink:href="#DejaVuSans-2e" x="63.623047"/>
       <use xlink:href="#DejaVuSans-32" x="95.410156"/>
       <use xlink:href="#DejaVuSans-35" x="159.033203"/>
      </g>
     </g>
    </g>
    <g id="xtick_25">
     <g id="line2d_61">
      <path d="M 317.933889 238.163478 
L 317.933889 180.313043 
" clip-path="url(#pa0c9da86db)" style="fill: none; stroke: #b0b0b0; stroke-width: 0.8; stroke-linecap: square"/>
     </g>
     <g id="line2d_62">
      <g>
       <use xlink:href="#m305400553e" x="317.933889" y="238.163478" style="stroke: #000000; stroke-width: 0.8"/>
      </g>
     </g>
     <g id="text_34">
      <!-- 0.30 -->
      <g transform="translate(306.801077 252.761916)scale(0.1 -0.1)">
       <use xlink:href="#DejaVuSans-30"/>
       <use xlink:href="#DejaVuSans-2e" x="63.623047"/>
       <use xlink:href="#DejaVuSans-33" x="95.410156"/>
       <use xlink:href="#DejaVuSans-30" x="159.033203"/>
      </g>
     </g>
    </g>
    <g id="xtick_26">
     <g id="line2d_63">
      <path d="M 358.617416 238.163478 
L 358.617416 180.313043 
" clip-path="url(#pa0c9da86db)" style="fill: none; stroke: #b0b0b0; stroke-width: 0.8; stroke-linecap: square"/>
     </g>
     <g id="line2d_64">
      <g>
       <use xlink:href="#m305400553e" x="358.617416" y="238.163478" style="stroke: #000000; stroke-width: 0.8"/>
      </g>
     </g>
     <g id="text_35">
      <!-- 0.35 -->
      <g transform="translate(347.484604 252.761916)scale(0.1 -0.1)">
       <use xlink:href="#DejaVuSans-30"/>
       <use xlink:href="#DejaVuSans-2e" x="63.623047"/>
       <use xlink:href="#DejaVuSans-33" x="95.410156"/>
       <use xlink:href="#DejaVuSans-35" x="159.033203"/>
      </g>
     </g>
    </g>
    <g id="xtick_27">
     <g id="line2d_65">
      <path d="M 399.300943 238.163478 
L 399.300943 180.313043 
" clip-path="url(#pa0c9da86db)" style="fill: none; stroke: #b0b0b0; stroke-width: 0.8; stroke-linecap: square"/>
     </g>
     <g id="line2d_66">
      <g>
       <use xlink:href="#m305400553e" x="399.300943" y="238.163478" style="stroke: #000000; stroke-width: 0.8"/>
      </g>
     </g>
     <g id="text_36">
      <!-- 0.40 -->
      <g transform="translate(388.168131 252.761916)scale(0.1 -0.1)">
       <use xlink:href="#DejaVuSans-30"/>
       <use xlink:href="#DejaVuSans-2e" x="63.623047"/>
       <use xlink:href="#DejaVuSans-34" x="95.410156"/>
       <use xlink:href="#DejaVuSans-30" x="159.033203"/>
      </g>
     </g>
    </g>
    <g id="text_37">
     <!-- time [s] -->
     <g transform="translate(216.768594 266.440041)scale(0.1 -0.1)">
      <use xlink:href="#DejaVuSans-74"/>
      <use xlink:href="#DejaVuSans-69" x="39.208984"/>
      <use xlink:href="#DejaVuSans-6d" x="66.992188"/>
      <use xlink:href="#DejaVuSans-65" x="164.404297"/>
      <use xlink:href="#DejaVuSans-20" x="225.927734"/>
      <use xlink:href="#DejaVuSans-5b" x="257.714844"/>
      <use xlink:href="#DejaVuSans-73" x="296.728516"/>
      <use xlink:href="#DejaVuSans-5d" x="348.828125"/>
     </g>
    </g>
   </g>
   <g id="matplotlib.axis_6">
    <g id="ytick_6">
     <g id="line2d_67">
      <path d="M 57.6 215.812174 
L 414.72 215.812174 
" clip-path="url(#pa0c9da86db)" style="fill: none; stroke: #b0b0b0; stroke-width: 0.8; stroke-linecap: square"/>
     </g>
     <g id="line2d_68">
      <g>
       <use xlink:href="#m7a89cc0087" x="57.6" y="215.812174" style="stroke: #000000; stroke-width: 0.8"/>
      </g>
     </g>
     <g id="text_38">
      <!-- 0.75 -->
      <g transform="translate(28.334375 219.611393)scale(0.1 -0.1)">
       <defs>
        <path id="DejaVuSans-37" d="M 525 4666 
L 3525 4666 
L 3525 4397 
L 1831 0 
L 1172 0 
L 2766 4134 
L 525 4134 
L 525 4666 
z
" transform="scale(0.015625)"/>
       </defs>
       <use xlink:href="#DejaVuSans-30"/>
       <use xlink:href="#DejaVuSans-2e" x="63.623047"/>
       <use xlink:href="#DejaVuSans-37" x="95.410156"/>
       <use xlink:href="#DejaVuSans-35" x="159.033203"/>
      </g>
     </g>
    </g>
    <g id="ytick_7">
     <g id="line2d_69">
      <path d="M 57.6 182.942609 
L 414.72 182.942609 
" clip-path="url(#pa0c9da86db)" style="fill: none; stroke: #b0b0b0; stroke-width: 0.8; stroke-linecap: square"/>
     </g>
     <g id="line2d_70">
      <g>
       <use xlink:href="#m7a89cc0087" x="57.6" y="182.942609" style="stroke: #000000; stroke-width: 0.8"/>
      </g>
     </g>
     <g id="text_39">
      <!-- 1.00 -->
      <g transform="translate(28.334375 186.741827)scale(0.1 -0.1)">
       <use xlink:href="#DejaVuSans-31"/>
       <use xlink:href="#DejaVuSans-2e" x="63.623047"/>
       <use xlink:href="#DejaVuSans-30" x="95.410156"/>
       <use xlink:href="#DejaVuSans-30" x="159.033203"/>
      </g>
     </g>
    </g>
    <g id="text_40">
     <!-- Rocket Mass [kg] -->
     <g transform="translate(22.254687 251.783573)rotate(-90)scale(0.1 -0.1)">
      <defs>
       <path id="DejaVuSans-52" d="M 2841 2188 
Q 3044 2119 3236 1894 
Q 3428 1669 3622 1275 
L 4263 0 
L 3584 0 
L 2988 1197 
Q 2756 1666 2539 1819 
Q 2322 1972 1947 1972 
L 1259 1972 
L 1259 0 
L 628 0 
L 628 4666 
L 2053 4666 
Q 2853 4666 3247 4331 
Q 3641 3997 3641 3322 
Q 3641 2881 3436 2590 
Q 3231 2300 2841 2188 
z
M 1259 4147 
L 1259 2491 
L 2053 2491 
Q 2509 2491 2742 2702 
Q 2975 2913 2975 3322 
Q 2975 3731 2742 3939 
Q 2509 4147 2053 4147 
L 1259 4147 
z
" transform="scale(0.015625)"/>
       <path id="DejaVuSans-6b" d="M 581 4863 
L 1159 4863 
L 1159 1991 
L 2875 3500 
L 3609 3500 
L 1753 1863 
L 3688 0 
L 2938 0 
L 1159 1709 
L 1159 0 
L 581 0 
L 581 4863 
z
" transform="scale(0.015625)"/>
       <path id="DejaVuSans-4d" d="M 628 4666 
L 1569 4666 
L 2759 1491 
L 3956 4666 
L 4897 4666 
L 4897 0 
L 4281 0 
L 4281 4097 
L 3078 897 
L 2444 897 
L 1241 4097 
L 1241 0 
L 628 0 
L 628 4666 
z
" transform="scale(0.015625)"/>
       <path id="DejaVuSans-61" d="M 2194 1759 
Q 1497 1759 1228 1600 
Q 959 1441 959 1056 
Q 959 750 1161 570 
Q 1363 391 1709 391 
Q 2188 391 2477 730 
Q 2766 1069 2766 1631 
L 2766 1759 
L 2194 1759 
z
M 3341 1997 
L 3341 0 
L 2766 0 
L 2766 531 
Q 2569 213 2275 61 
Q 1981 -91 1556 -91 
Q 1019 -91 701 211 
Q 384 513 384 1019 
Q 384 1609 779 1909 
Q 1175 2209 1959 2209 
L 2766 2209 
L 2766 2266 
Q 2766 2663 2505 2880 
Q 2244 3097 1772 3097 
Q 1472 3097 1187 3025 
Q 903 2953 641 2809 
L 641 3341 
Q 956 3463 1253 3523 
Q 1550 3584 1831 3584 
Q 2591 3584 2966 3190 
Q 3341 2797 3341 1997 
z
" transform="scale(0.015625)"/>
       <path id="DejaVuSans-67" d="M 2906 1791 
Q 2906 2416 2648 2759 
Q 2391 3103 1925 3103 
Q 1463 3103 1205 2759 
Q 947 2416 947 1791 
Q 947 1169 1205 825 
Q 1463 481 1925 481 
Q 2391 481 2648 825 
Q 2906 1169 2906 1791 
z
M 3481 434 
Q 3481 -459 3084 -895 
Q 2688 -1331 1869 -1331 
Q 1566 -1331 1297 -1286 
Q 1028 -1241 775 -1147 
L 775 -588 
Q 1028 -725 1275 -790 
Q 1522 -856 1778 -856 
Q 2344 -856 2625 -561 
Q 2906 -266 2906 331 
L 2906 616 
Q 2728 306 2450 153 
Q 2172 0 1784 0 
Q 1141 0 747 490 
Q 353 981 353 1791 
Q 353 2603 747 3093 
Q 1141 3584 1784 3584 
Q 2172 3584 2450 3431 
Q 2728 3278 2906 2969 
L 2906 3500 
L 3481 3500 
L 3481 434 
z
" transform="scale(0.015625)"/>
      </defs>
      <use xlink:href="#DejaVuSans-52"/>
      <use xlink:href="#DejaVuSans-6f" x="64.982422"/>
      <use xlink:href="#DejaVuSans-63" x="126.164062"/>
      <use xlink:href="#DejaVuSans-6b" x="181.144531"/>
      <use xlink:href="#DejaVuSans-65" x="235.429688"/>
      <use xlink:href="#DejaVuSans-74" x="296.953125"/>
      <use xlink:href="#DejaVuSans-20" x="336.162109"/>
      <use xlink:href="#DejaVuSans-4d" x="367.949219"/>
      <use xlink:href="#DejaVuSans-61" x="454.228516"/>
      <use xlink:href="#DejaVuSans-73" x="515.507812"/>
      <use xlink:href="#DejaVuSans-73" x="567.607422"/>
      <use xlink:href="#DejaVuSans-20" x="619.707031"/>
      <use xlink:href="#DejaVuSans-5b" x="651.494141"/>
      <use xlink:href="#DejaVuSans-6b" x="690.507812"/>
      <use xlink:href="#DejaVuSans-67" x="748.417969"/>
      <use xlink:href="#DejaVuSans-5d" x="811.894531"/>
     </g>
    </g>
   </g>
   <g id="line2d_71">
    <path d="M 73.832727 182.942609 
L 75.460068 184.014316 
L 76.273739 184.722236 
L 77.087409 185.001771 
L 77.90108 185.853828 
L 78.714751 186.224701 
L 79.528421 186.394084 
L 81.155762 187.471911 
L 81.969433 187.574517 
L 82.783103 188.432786 
L 83.596774 188.779397 
L 85.224115 190.000164 
L 86.037785 190.505316 
L 86.851456 190.723263 
L 87.665126 191.608093 
L 89.292468 192.081631 
L 90.106138 192.180586 
L 90.919809 193.09389 
L 91.733479 193.140273 
L 92.54715 193.91638 
L 94.174491 194.290374 
L 94.988161 194.329533 
L 95.801832 194.899615 
L 96.615502 195.81774 
L 97.429173 196.253607 
L 99.056514 197.572586 
L 100.683855 198.322705 
L 102.311196 198.694189 
L 103.124867 199.362491 
L 103.938537 199.505911 
L 104.752208 199.828635 
L 105.565878 200.637077 
L 106.379549 201.259769 
L 107.193219 201.570807 
L 108.00689 202.413811 
L 109.634231 202.538815 
L 110.447902 203.049336 
L 112.888913 203.568911 
L 114.516254 205.255628 
L 115.329925 206.16382 
L 116.957266 206.516942 
L 117.770936 207.355769 
L 118.584607 207.598335 
L 119.398278 207.647094 
L 120.211948 207.859947 
L 121.025619 208.346799 
L 121.839289 208.51407 
L 122.65296 209.213281 
L 123.46663 209.594567 
L 124.280301 209.74024 
L 125.907642 211.015506 
L 126.721312 211.472281 
L 127.534983 212.379192 
L 128.348653 212.429363 
L 129.975995 213.592342 
L 130.789665 213.59689 
L 131.603336 214.326698 
L 132.417006 214.373062 
L 134.044347 214.894136 
L 134.858018 215.698564 
L 135.671688 215.744337 
L 136.485359 216.495697 
L 137.299029 217.01147 
L 138.1127 217.098648 
L 138.92637 217.713175 
L 140.553712 217.884438 
L 141.367382 218.73976 
L 142.181053 218.904406 
L 143.808394 220.309416 
L 144.622064 220.638879 
L 145.435735 221.424767 
L 146.249405 221.769581 
L 147.063076 222.629187 
L 147.876746 222.692345 
L 148.690417 223.447311 
L 149.504087 224.022508 
L 150.317758 224.399655 
L 151.131429 225.31655 
L 152.75877 226.532998 
L 153.57244 227.361492 
L 154.386111 227.949747 
L 155.199781 228.691975 
L 156.013452 229.000182 
L 157.640793 229.369729 
L 158.454463 230.186644 
L 159.268134 230.825762 
L 160.081805 230.959728 
L 160.895475 231.749159 
L 161.709146 232.238355 
L 162.522816 232.964767 
L 164.150157 233.624328 
L 164.963828 233.829821 
L 166.591169 235.533913 
L 398.487273 235.533913 
L 398.487273 235.533913 
" clip-path="url(#pa0c9da86db)" style="fill: none; stroke: #1f77b4; stroke-width: 1.5; stroke-linecap: square"/>
   </g>
   <g id="patch_13">
    <path d="M 57.6 238.163478 
L 57.6 180.313043 
" style="fill: none; stroke: #000000; stroke-width: 0.8; stroke-linejoin: miter; stroke-linecap: square"/>
   </g>
   <g id="patch_14">
    <path d="M 414.72 238.163478 
L 414.72 180.313043 
" style="fill: none; stroke: #000000; stroke-width: 0.8; stroke-linejoin: miter; stroke-linecap: square"/>
   </g>
   <g id="patch_15">
    <path d="M 57.6 238.163478 
L 414.72 238.163478 
" style="fill: none; stroke: #000000; stroke-width: 0.8; stroke-linejoin: miter; stroke-linecap: square"/>
   </g>
   <g id="patch_16">
    <path d="M 57.6 180.313043 
L 414.72 180.313043 
" style="fill: none; stroke: #000000; stroke-width: 0.8; stroke-linejoin: miter; stroke-linecap: square"/>
   </g>
  </g>
  <g id="axes_4">
   <g id="patch_17">
    <path d="M 57.6 307.584 
L 414.72 307.584 
L 414.72 249.733565 
L 57.6 249.733565 
z
" style="fill: #ffffff"/>
   </g>
   <g id="matplotlib.axis_7">
    <g id="xtick_28">
     <g id="line2d_72">
      <path d="M 73.832727 307.584 
L 73.832727 249.733565 
" clip-path="url(#p3705e5d856)" style="fill: none; stroke: #b0b0b0; stroke-width: 0.8; stroke-linecap: square"/>
     </g>
     <g id="line2d_73">
      <g>
       <use xlink:href="#m305400553e" x="73.832727" y="307.584" style="stroke: #000000; stroke-width: 0.8"/>
      </g>
     </g>
     <g id="text_41">
      <!-- 0.00 -->
      <g transform="translate(62.699915 322.182437)scale(0.1 -0.1)">
       <use xlink:href="#DejaVuSans-30"/>
       <use xlink:href="#DejaVuSans-2e" x="63.623047"/>
       <use xlink:href="#DejaVuSans-30" x="95.410156"/>
       <use xlink:href="#DejaVuSans-30" x="159.033203"/>
      </g>
     </g>
    </g>
    <g id="xtick_29">
     <g id="line2d_74">
      <path d="M 114.516254 307.584 
L 114.516254 249.733565 
" clip-path="url(#p3705e5d856)" style="fill: none; stroke: #b0b0b0; stroke-width: 0.8; stroke-linecap: square"/>
     </g>
     <g id="line2d_75">
      <g>
       <use xlink:href="#m305400553e" x="114.516254" y="307.584" style="stroke: #000000; stroke-width: 0.8"/>
      </g>
     </g>
     <g id="text_42">
      <!-- 0.05 -->
      <g transform="translate(103.383442 322.182437)scale(0.1 -0.1)">
       <use xlink:href="#DejaVuSans-30"/>
       <use xlink:href="#DejaVuSans-2e" x="63.623047"/>
       <use xlink:href="#DejaVuSans-30" x="95.410156"/>
       <use xlink:href="#DejaVuSans-35" x="159.033203"/>
      </g>
     </g>
    </g>
    <g id="xtick_30">
     <g id="line2d_76">
      <path d="M 155.199781 307.584 
L 155.199781 249.733565 
" clip-path="url(#p3705e5d856)" style="fill: none; stroke: #b0b0b0; stroke-width: 0.8; stroke-linecap: square"/>
     </g>
     <g id="line2d_77">
      <g>
       <use xlink:href="#m305400553e" x="155.199781" y="307.584" style="stroke: #000000; stroke-width: 0.8"/>
      </g>
     </g>
     <g id="text_43">
      <!-- 0.10 -->
      <g transform="translate(144.066969 322.182437)scale(0.1 -0.1)">
       <use xlink:href="#DejaVuSans-30"/>
       <use xlink:href="#DejaVuSans-2e" x="63.623047"/>
       <use xlink:href="#DejaVuSans-31" x="95.410156"/>
       <use xlink:href="#DejaVuSans-30" x="159.033203"/>
      </g>
     </g>
    </g>
    <g id="xtick_31">
     <g id="line2d_78">
      <path d="M 195.883308 307.584 
L 195.883308 249.733565 
" clip-path="url(#p3705e5d856)" style="fill: none; stroke: #b0b0b0; stroke-width: 0.8; stroke-linecap: square"/>
     </g>
     <g id="line2d_79">
      <g>
       <use xlink:href="#m305400553e" x="195.883308" y="307.584" style="stroke: #000000; stroke-width: 0.8"/>
      </g>
     </g>
     <g id="text_44">
      <!-- 0.15 -->
      <g transform="translate(184.750496 322.182437)scale(0.1 -0.1)">
       <use xlink:href="#DejaVuSans-30"/>
       <use xlink:href="#DejaVuSans-2e" x="63.623047"/>
       <use xlink:href="#DejaVuSans-31" x="95.410156"/>
       <use xlink:href="#DejaVuSans-35" x="159.033203"/>
      </g>
     </g>
    </g>
    <g id="xtick_32">
     <g id="line2d_80">
      <path d="M 236.566835 307.584 
L 236.566835 249.733565 
" clip-path="url(#p3705e5d856)" style="fill: none; stroke: #b0b0b0; stroke-width: 0.8; stroke-linecap: square"/>
     </g>
     <g id="line2d_81">
      <g>
       <use xlink:href="#m305400553e" x="236.566835" y="307.584" style="stroke: #000000; stroke-width: 0.8"/>
      </g>
     </g>
     <g id="text_45">
      <!-- 0.20 -->
      <g transform="translate(225.434023 322.182437)scale(0.1 -0.1)">
       <use xlink:href="#DejaVuSans-30"/>
       <use xlink:href="#DejaVuSans-2e" x="63.623047"/>
       <use xlink:href="#DejaVuSans-32" x="95.410156"/>
       <use xlink:href="#DejaVuSans-30" x="159.033203"/>
      </g>
     </g>
    </g>
    <g id="xtick_33">
     <g id="line2d_82">
      <path d="M 277.250362 307.584 
L 277.250362 249.733565 
" clip-path="url(#p3705e5d856)" style="fill: none; stroke: #b0b0b0; stroke-width: 0.8; stroke-linecap: square"/>
     </g>
     <g id="line2d_83">
      <g>
       <use xlink:href="#m305400553e" x="277.250362" y="307.584" style="stroke: #000000; stroke-width: 0.8"/>
      </g>
     </g>
     <g id="text_46">
      <!-- 0.25 -->
      <g transform="translate(266.11755 322.182437)scale(0.1 -0.1)">
       <use xlink:href="#DejaVuSans-30"/>
       <use xlink:href="#DejaVuSans-2e" x="63.623047"/>
       <use xlink:href="#DejaVuSans-32" x="95.410156"/>
       <use xlink:href="#DejaVuSans-35" x="159.033203"/>
      </g>
     </g>
    </g>
    <g id="xtick_34">
     <g id="line2d_84">
      <path d="M 317.933889 307.584 
L 317.933889 249.733565 
" clip-path="url(#p3705e5d856)" style="fill: none; stroke: #b0b0b0; stroke-width: 0.8; stroke-linecap: square"/>
     </g>
     <g id="line2d_85">
      <g>
       <use xlink:href="#m305400553e" x="317.933889" y="307.584" style="stroke: #000000; stroke-width: 0.8"/>
      </g>
     </g>
     <g id="text_47">
      <!-- 0.30 -->
      <g transform="translate(306.801077 322.182437)scale(0.1 -0.1)">
       <use xlink:href="#DejaVuSans-30"/>
       <use xlink:href="#DejaVuSans-2e" x="63.623047"/>
       <use xlink:href="#DejaVuSans-33" x="95.410156"/>
       <use xlink:href="#DejaVuSans-30" x="159.033203"/>
      </g>
     </g>
    </g>
    <g id="xtick_35">
     <g id="line2d_86">
      <path d="M 358.617416 307.584 
L 358.617416 249.733565 
" clip-path="url(#p3705e5d856)" style="fill: none; stroke: #b0b0b0; stroke-width: 0.8; stroke-linecap: square"/>
     </g>
     <g id="line2d_87">
      <g>
       <use xlink:href="#m305400553e" x="358.617416" y="307.584" style="stroke: #000000; stroke-width: 0.8"/>
      </g>
     </g>
     <g id="text_48">
      <!-- 0.35 -->
      <g transform="translate(347.484604 322.182437)scale(0.1 -0.1)">
       <use xlink:href="#DejaVuSans-30"/>
       <use xlink:href="#DejaVuSans-2e" x="63.623047"/>
       <use xlink:href="#DejaVuSans-33" x="95.410156"/>
       <use xlink:href="#DejaVuSans-35" x="159.033203"/>
      </g>
     </g>
    </g>
    <g id="xtick_36">
     <g id="line2d_88">
      <path d="M 399.300943 307.584 
L 399.300943 249.733565 
" clip-path="url(#p3705e5d856)" style="fill: none; stroke: #b0b0b0; stroke-width: 0.8; stroke-linecap: square"/>
     </g>
     <g id="line2d_89">
      <g>
       <use xlink:href="#m305400553e" x="399.300943" y="307.584" style="stroke: #000000; stroke-width: 0.8"/>
      </g>
     </g>
     <g id="text_49">
      <!-- 0.40 -->
      <g transform="translate(388.168131 322.182437)scale(0.1 -0.1)">
       <use xlink:href="#DejaVuSans-30"/>
       <use xlink:href="#DejaVuSans-2e" x="63.623047"/>
       <use xlink:href="#DejaVuSans-34" x="95.410156"/>
       <use xlink:href="#DejaVuSans-30" x="159.033203"/>
      </g>
     </g>
    </g>
    <g id="text_50">
     <!-- time [s] -->
     <g transform="translate(216.768594 335.860562)scale(0.1 -0.1)">
      <use xlink:href="#DejaVuSans-74"/>
      <use xlink:href="#DejaVuSans-69" x="39.208984"/>
      <use xlink:href="#DejaVuSans-6d" x="66.992188"/>
      <use xlink:href="#DejaVuSans-65" x="164.404297"/>
      <use xlink:href="#DejaVuSans-20" x="225.927734"/>
      <use xlink:href="#DejaVuSans-5b" x="257.714844"/>
      <use xlink:href="#DejaVuSans-73" x="296.728516"/>
      <use xlink:href="#DejaVuSans-5d" x="348.828125"/>
     </g>
    </g>
   </g>
   <g id="matplotlib.axis_8">
    <g id="ytick_8">
     <g id="line2d_90">
      <path d="M 57.6 289.77557 
L 414.72 289.77557 
" clip-path="url(#p3705e5d856)" style="fill: none; stroke: #b0b0b0; stroke-width: 0.8; stroke-linecap: square"/>
     </g>
     <g id="line2d_91">
      <g>
       <use xlink:href="#m7a89cc0087" x="57.6" y="289.77557" style="stroke: #000000; stroke-width: 0.8"/>
      </g>
     </g>
     <g id="text_51">
      <!-- 0.0 -->
      <g transform="translate(34.696875 293.574788)scale(0.1 -0.1)">
       <use xlink:href="#DejaVuSans-30"/>
       <use xlink:href="#DejaVuSans-2e" x="63.623047"/>
       <use xlink:href="#DejaVuSans-30" x="95.410156"/>
      </g>
     </g>
    </g>
    <g id="ytick_9">
     <g id="line2d_92">
      <path d="M 57.6 262.9877 
L 414.72 262.9877 
" clip-path="url(#p3705e5d856)" style="fill: none; stroke: #b0b0b0; stroke-width: 0.8; stroke-linecap: square"/>
     </g>
     <g id="line2d_93">
      <g>
       <use xlink:href="#m7a89cc0087" x="57.6" y="262.9877" style="stroke: #000000; stroke-width: 0.8"/>
      </g>
     </g>
     <g id="text_52">
      <!-- 2.5 -->
      <g transform="translate(34.696875 266.786919)scale(0.1 -0.1)">
       <use xlink:href="#DejaVuSans-32"/>
       <use xlink:href="#DejaVuSans-2e" x="63.623047"/>
       <use xlink:href="#DejaVuSans-35" x="95.410156"/>
      </g>
     </g>
    </g>
    <g id="text_53">
     <!-- Forces [N] -->
     <g transform="translate(28.617187 304.017376)rotate(-90)scale(0.1 -0.1)">
      <defs>
       <path id="DejaVuSans-46" d="M 628 4666 
L 3309 4666 
L 3309 4134 
L 1259 4134 
L 1259 2759 
L 3109 2759 
L 3109 2228 
L 1259 2228 
L 1259 0 
L 628 0 
L 628 4666 
z
" transform="scale(0.015625)"/>
       <path id="DejaVuSans-72" d="M 2631 2963 
Q 2534 3019 2420 3045 
Q 2306 3072 2169 3072 
Q 1681 3072 1420 2755 
Q 1159 2438 1159 1844 
L 1159 0 
L 581 0 
L 581 3500 
L 1159 3500 
L 1159 2956 
Q 1341 3275 1631 3429 
Q 1922 3584 2338 3584 
Q 2397 3584 2469 3576 
Q 2541 3569 2628 3553 
L 2631 2963 
z
" transform="scale(0.015625)"/>
       <path id="DejaVuSans-4e" d="M 628 4666 
L 1478 4666 
L 3547 763 
L 3547 4666 
L 4159 4666 
L 4159 0 
L 3309 0 
L 1241 3903 
L 1241 0 
L 628 0 
L 628 4666 
z
" transform="scale(0.015625)"/>
      </defs>
      <use xlink:href="#DejaVuSans-46"/>
      <use xlink:href="#DejaVuSans-6f" x="53.894531"/>
      <use xlink:href="#DejaVuSans-72" x="115.076172"/>
      <use xlink:href="#DejaVuSans-63" x="153.939453"/>
      <use xlink:href="#DejaVuSans-65" x="208.919922"/>
      <use xlink:href="#DejaVuSans-73" x="270.443359"/>
      <use xlink:href="#DejaVuSans-20" x="322.542969"/>
      <use xlink:href="#DejaVuSans-5b" x="354.330078"/>
      <use xlink:href="#DejaVuSans-4e" x="393.34375"/>
      <use xlink:href="#DejaVuSans-5d" x="468.148438"/>
     </g>
    </g>
   </g>
   <g id="line2d_94">
    <path d="M 73.832727 284.178384 
L 75.460068 281.533611 
L 76.273739 286.521087 
L 77.087409 279.855503 
L 77.90108 285.457681 
L 78.714751 287.803531 
L 79.528421 283.701456 
L 80.342092 283.301085 
L 81.155762 288.58098 
L 81.969433 279.78317 
L 82.783103 285.740147 
L 83.596774 282.374263 
L 84.410444 282.964103 
L 85.224115 283.894343 
L 86.037785 287.238123 
L 86.851456 279.473934 
L 87.665126 286.340403 
L 88.478797 287.697566 
L 89.292468 288.623489 
L 90.106138 279.142425 
L 90.919809 289.235566 
L 91.733479 280.739743 
L 92.54715 287.365956 
L 93.36082 287.830953 
L 94.174491 289.319662 
L 94.988161 283.13839 
L 95.801832 279.086301 
L 96.615502 284.700997 
L 97.429173 282.086771 
L 98.242843 282.108159 
L 99.056514 284.846983 
L 99.870185 285.970887 
L 100.683855 288.232607 
L 101.497526 286.993538 
L 102.311196 281.994863 
L 103.124867 288.105805 
L 103.938537 286.018257 
L 104.752208 280.363278 
L 105.565878 282.525886 
L 106.379549 286.154311 
L 107.193219 279.960894 
L 108.00689 289.631507 
L 108.82056 288.464274 
L 109.634231 283.831828 
L 110.447902 287.931276 
L 111.261572 288.420017 
L 112.075243 286.926265 
L 112.888913 280.675913 
L 113.702584 279.237633 
L 114.516254 279.201937 
L 115.329925 287.811287 
L 116.143595 287.628637 
L 116.957266 280.009524 
L 117.770936 286.9515 
L 118.584607 289.207888 
L 119.398278 287.297432 
L 120.211948 284.107393 
L 121.025619 287.828115 
L 121.839289 281.635014 
L 122.65296 285.336448 
L 123.46663 288.079574 
L 124.280301 281.998899 
L 125.093971 282.704954 
L 125.907642 284.457568 
L 126.721312 279.216858 
L 127.534983 289.191452 
L 128.348653 282.223634 
L 129.162324 283.787529 
L 129.975995 289.722614 
L 130.789665 281.278782 
L 131.603336 289.235774 
L 132.417006 286.148417 
L 133.230677 287.336124 
L 134.044347 280.41002 
L 134.858018 289.242656 
L 135.671688 281.02786 
L 136.485359 283.770685 
L 137.299029 288.760608 
L 138.1127 282.62094 
L 138.92637 288.978987 
L 139.740041 288.578219 
L 140.553712 279.817479 
L 141.367382 287.858684 
L 142.181053 281.788633 
L 142.994723 281.404683 
L 143.808394 285.939789 
L 144.622064 280.625873 
L 145.435735 285.761069 
L 146.249405 279.767616 
L 147.063076 289.040253 
L 147.876746 280.985877 
L 149.504087 285.384636 
L 150.317758 279.100629 
L 151.131429 282.802939 
L 151.945099 282.585703 
L 152.75877 280.129829 
L 153.57244 282.926811 
L 154.386111 281.134182 
L 155.199781 286.187273 
L 156.013452 287.960898 
L 156.827122 287.287793 
L 157.640793 280.26463 
L 158.454463 282.334648 
L 159.268134 288.215866 
L 160.081805 280.58462 
L 160.895475 284.080105 
L 161.709146 281.318317 
L 162.522816 285.285891 
L 163.336487 286.586313 
L 164.150157 287.383119 
L 164.963828 279.612953 
L 165.777498 280.069363 
L 166.591169 289.144358 
L 167.404839 280.595794 
L 168.21851 283.045685 
L 169.03218 283.229167 
L 169.845851 279.277484 
L 171.473192 281.148975 
L 172.286863 285.281381 
L 173.100533 286.617485 
L 173.914204 289.674184 
L 174.727874 286.985341 
L 175.541545 288.325048 
L 176.355215 280.956786 
L 177.168886 285.169721 
L 177.982556 283.237288 
L 178.796227 287.532361 
L 179.609897 280.652354 
L 180.423568 283.136811 
L 181.237239 281.525841 
L 182.050909 281.721089 
L 182.86458 280.181293 
L 183.67825 279.836309 
L 184.491921 282.70643 
L 185.305591 285.161091 
L 186.119262 284.477116 
L 186.932932 279.066183 
L 187.746603 286.64894 
L 188.560273 285.882398 
L 189.373944 280.204451 
L 190.187614 287.10947 
L 191.001285 288.505744 
L 191.814956 286.843573 
L 192.628626 287.349675 
L 193.442297 281.994976 
L 194.255967 288.805678 
L 195.069638 281.413382 
L 195.883308 287.693733 
L 196.696979 284.126345 
L 197.510649 288.847494 
L 198.32432 280.135529 
L 199.13799 279.241735 
L 199.951661 279.859563 
L 200.765332 281.122245 
L 201.579002 280.399714 
L 202.392673 288.869267 
L 203.206343 281.170619 
L 204.020014 280.162511 
L 204.833684 289.202054 
L 205.647355 283.946124 
L 206.461025 282.755923 
L 207.274696 286.652007 
L 208.088366 283.82296 
L 208.902037 283.118138 
L 209.715707 281.81039 
L 210.529378 282.403886 
L 211.343049 289.209373 
L 212.156719 285.603965 
L 212.97039 287.960892 
L 213.78406 288.211091 
L 214.597731 286.633086 
L 215.411401 288.15784 
L 216.225072 281.651827 
L 217.038742 288.225255 
L 217.852413 288.235515 
L 218.666083 280.880782 
L 219.479754 288.810789 
L 220.293424 279.95712 
L 221.107095 287.498928 
L 221.920766 281.120924 
L 222.734436 283.859639 
L 223.548107 282.673864 
L 224.361777 286.408058 
L 225.175448 281.288062 
L 225.989118 279.988771 
L 226.802789 285.573559 
L 227.616459 283.699006 
L 228.43013 283.736362 
L 229.2438 284.734221 
L 230.057471 284.571437 
L 230.871141 289.634274 
L 231.684812 283.876479 
L 232.498483 282.661329 
L 233.312153 286.691223 
L 234.125824 287.78757 
L 234.939494 282.546701 
L 235.753165 284.29959 
L 236.566835 286.603148 
L 237.380506 287.035052 
L 238.194176 285.30092 
L 239.007847 280.083371 
L 239.821517 287.645852 
L 240.635188 288.105948 
L 241.448859 282.691172 
L 242.262529 283.02053 
L 243.0762 282.386692 
L 243.88987 287.261147 
L 244.703541 283.428638 
L 245.517211 281.83447 
L 247.144552 279.961754 
L 247.958223 283.488268 
L 248.771893 280.653285 
L 249.585564 282.85363 
L 250.399234 279.797472 
L 251.212905 283.556564 
L 252.026576 282.006914 
L 252.840246 288.123974 
L 253.653917 285.576321 
L 254.467587 285.506595 
L 255.281258 285.306337 
L 256.094928 288.474683 
L 256.908599 281.80159 
L 257.722269 282.746408 
L 258.53594 281.123188 
L 259.34961 288.057736 
L 260.163281 281.150606 
L 260.976951 282.029123 
L 261.790622 282.021283 
L 262.604293 289.628355 
L 263.417963 283.076606 
L 264.231634 285.286932 
L 265.045304 280.619 
L 265.858975 280.765421 
L 266.672645 280.536737 
L 267.486316 287.546223 
L 268.299986 285.035604 
L 269.113657 287.6463 
L 269.927327 283.67048 
L 270.740998 286.287859 
L 271.554668 284.065733 
L 272.368339 287.827232 
L 273.18201 286.307409 
L 273.99568 285.497294 
L 274.809351 280.946126 
L 275.623021 285.358922 
L 276.436692 279.814025 
L 277.250362 284.78597 
L 278.064033 285.213078 
L 278.877703 285.148774 
L 279.691374 281.15009 
L 280.505044 283.218488 
L 281.318715 281.809402 
L 282.132386 286.82508 
L 282.946056 287.161002 
L 283.759727 279.814458 
L 284.573397 282.841925 
L 285.387068 284.597835 
L 286.200738 289.337568 
L 287.014409 286.102832 
L 287.828079 289.37028 
L 288.64175 282.366718 
L 289.45542 289.035673 
L 290.269091 287.612404 
L 291.082761 282.217141 
L 291.896432 279.717132 
L 292.710103 286.262486 
L 293.523773 287.589819 
L 294.337444 284.702623 
L 295.151114 279.267674 
L 295.964785 288.503321 
L 296.778455 285.762447 
L 297.592126 280.741652 
L 298.405796 280.641315 
L 299.219467 283.330727 
L 300.033137 285.563306 
L 300.846808 288.53299 
L 301.660478 281.492371 
L 302.474149 279.714245 
L 303.28782 281.224916 
L 304.10149 284.803092 
L 304.915161 279.630493 
L 305.728831 287.652845 
L 306.542502 286.592964 
L 307.356172 283.050085 
L 308.169843 286.639548 
L 308.983513 281.837909 
L 309.797184 285.754435 
L 310.610854 287.252869 
L 311.424525 287.46317 
L 312.238195 284.808808 
L 313.051866 282.973525 
L 313.865537 285.027088 
L 314.679207 280.739727 
L 316.306548 283.117606 
L 317.120219 281.857159 
L 317.933889 286.144623 
L 318.74756 285.947891 
L 319.56123 288.748385 
L 320.374901 281.084564 
L 321.188571 289.720382 
L 322.002242 289.388985 
L 322.815913 288.141013 
L 323.629583 282.324936 
L 324.443254 287.852055 
L 325.256924 282.608658 
L 326.070595 282.274078 
L 326.884265 287.743261 
L 327.697936 288.306885 
L 328.511606 289.634705 
L 329.325277 283.728317 
L 330.138947 285.812261 
L 330.952618 282.662461 
L 331.766288 284.937561 
L 332.579959 289.437382 
L 333.39363 288.045768 
L 334.2073 287.205302 
L 335.020971 285.338262 
L 335.834641 285.759955 
L 336.648312 283.491544 
L 337.461982 287.521347 
L 338.275653 282.277354 
L 339.089323 281.01971 
L 339.902994 281.817693 
L 340.716664 280.429637 
L 341.530335 288.04494 
L 342.344005 286.321962 
L 343.157676 282.608252 
L 344.785017 287.926831 
L 345.598688 287.171549 
L 346.412358 281.572687 
L 347.226029 282.56026 
L 348.039699 288.321254 
L 348.85337 285.164995 
L 349.66704 289.72632 
L 350.480711 288.638289 
L 351.294381 288.304175 
L 352.108052 280.273283 
L 352.921722 279.445553 
L 353.735393 280.054083 
L 354.549064 284.452771 
L 355.362734 285.080342 
L 356.176405 286.270051 
L 356.990075 289.345561 
L 357.803746 287.847694 
L 358.617416 289.693494 
L 359.431087 282.460768 
L 360.244757 289.702341 
L 361.058428 288.135194 
L 361.872098 282.422496 
L 362.685769 280.684246 
L 363.49944 280.637675 
L 364.31311 288.626902 
L 365.126781 287.386663 
L 365.940451 284.009407 
L 366.754122 281.76897 
L 367.567792 289.727756 
L 368.381463 281.762972 
L 369.195133 281.162493 
L 370.008804 287.098831 
L 370.822474 287.545968 
L 371.636145 285.172849 
L 372.449815 279.933857 
L 373.263486 285.899081 
L 374.077157 282.861977 
L 374.890827 279.36442 
L 375.704498 281.687649 
L 376.518168 285.02328 
L 377.331839 284.741013 
L 378.145509 283.395148 
L 378.95918 281.62891 
L 379.77285 283.595849 
L 380.586521 280.920418 
L 381.400191 280.086906 
L 382.213862 288.858492 
L 383.841203 285.819919 
L 385.468544 281.396468 
L 386.282215 287.732538 
L 387.095885 280.239099 
L 387.909556 284.067918 
L 388.723226 279.695176 
L 390.350567 289.169829 
L 391.164238 287.774525 
L 391.977908 280.184483 
L 392.791579 283.010978 
L 393.605249 281.507311 
L 394.41892 287.969869 
L 395.232591 288.026837 
L 396.046261 286.985627 
L 396.859932 284.723206 
L 397.673602 281.376753 
L 398.487273 285.141485 
L 398.487273 285.141485 
" clip-path="url(#p3705e5d856)" style="fill: none; stroke: #1f77b4; stroke-width: 1.5; stroke-linecap: square"/>
   </g>
   <g id="line2d_95">
    <path d="M 73.832727 270.185421 
L 75.460068 260.928715 
L 76.273739 278.384879 
L 77.087409 255.055335 
L 77.90108 274.662961 
L 78.714751 282.873434 
L 79.528421 268.51617 
L 80.342092 267.114874 
L 81.155762 285.594507 
L 81.969433 254.802172 
L 82.783103 275.651589 
L 83.596774 263.870995 
L 84.410444 265.935435 
L 85.224115 269.191275 
L 86.037785 280.894507 
L 86.851456 253.719845 
L 87.665126 277.752487 
L 88.478797 282.502557 
L 89.292468 285.743286 
L 90.106138 252.559564 
L 90.919809 287.885557 
L 91.733479 258.150175 
L 92.54715 281.34192 
L 93.36082 282.969411 
L 94.174491 288.179893 
L 94.988161 266.545442 
L 95.801832 252.36313 
L 96.615502 272.014566 
L 97.429173 262.864774 
L 98.242843 262.939632 
L 99.056514 272.525518 
L 99.870185 276.459181 
L 100.683855 284.3752 
L 101.497526 280.038458 
L 102.311196 262.543095 
L 103.124867 283.931395 
L 103.938537 276.624974 
L 104.752208 256.832549 
L 105.565878 264.401676 
L 106.379549 277.101165 
L 107.193219 255.424204 
L 108.00689 289.271349 
L 108.82056 285.186034 
L 109.634231 268.972475 
L 110.447902 283.320542 
L 111.261572 285.031135 
L 112.075243 279.803002 
L 112.888913 257.926771 
L 113.702584 252.892791 
L 114.516254 252.767855 
L 115.329925 282.900579 
L 116.143595 282.261305 
L 116.957266 255.594408 
L 117.770936 279.891327 
L 118.584607 287.788684 
L 119.398278 281.102089 
L 120.211948 269.936952 
L 121.025619 282.959477 
L 121.839289 261.283624 
L 122.65296 274.238644 
L 123.46663 283.839586 
L 124.280301 262.557224 
L 125.093971 265.028415 
L 125.907642 271.162564 
L 126.721312 252.820079 
L 127.534983 287.731157 
L 128.348653 263.343794 
L 129.162324 268.817429 
L 129.975995 289.590223 
L 130.789665 260.036814 
L 131.603336 287.886285 
L 132.417006 277.080534 
L 133.230677 281.237509 
L 134.044347 256.996146 
L 134.858018 287.91037 
L 135.671688 259.158586 
L 136.485359 268.758472 
L 137.299029 286.223203 
L 138.1127 264.734364 
L 138.92637 286.98753 
L 139.740041 285.584844 
L 140.553712 254.922254 
L 141.367382 283.066471 
L 142.181053 261.821291 
L 142.994723 260.477466 
L 143.808394 276.350338 
L 144.622064 257.751633 
L 145.435735 275.724818 
L 146.249405 254.74773 
L 147.063076 287.201963 
L 147.876746 259.011644 
L 149.504087 274.407303 
L 150.317758 252.413278 
L 151.131429 265.371361 
L 151.945099 264.611036 
L 152.75877 256.015478 
L 153.57244 265.804915 
L 154.386111 259.530714 
L 155.199781 277.216531 
L 156.013452 283.42422 
L 156.827122 281.06835 
L 157.640793 256.487281 
L 158.454463 263.732344 
L 159.268134 284.316606 
L 160.081805 257.607245 
L 160.895475 269.841442 
L 161.709146 260.175186 
L 162.522816 274.061693 
L 163.336487 278.613172 
L 164.150157 281.401991 
L 164.963828 254.206411 
L 165.777498 255.803845 
L 166.591169 289.77557 
L 398.487273 289.77557 
L 398.487273 289.77557 
" clip-path="url(#p3705e5d856)" style="fill: none; stroke: #ff7f0e; stroke-width: 1.5; stroke-linecap: square"/>
   </g>
   <g id="line2d_96">
    <path d="M 73.832727 289.77557 
L 80.342092 289.686339 
L 86.851456 289.306919 
L 87.665126 289.095194 
L 89.292468 289.12392 
L 90.106138 289.186398 
L 90.919809 288.941339 
L 91.733479 289.035453 
L 92.54715 288.827182 
L 95.801832 288.886358 
L 96.615502 288.59413 
L 97.429173 288.521587 
L 99.056514 288.128315 
L 100.683855 288.051721 
L 102.311196 288.193103 
L 103.124867 287.983344 
L 104.752208 288.07457 
L 106.379549 287.583963 
L 107.193219 287.595969 
L 108.00689 287.251706 
L 109.634231 287.619828 
L 110.447902 287.502722 
L 112.888913 287.791236 
L 114.516254 287.130117 
L 115.329925 286.734459 
L 116.957266 287.004817 
L 117.770936 286.662979 
L 118.584607 286.758033 
L 119.398278 286.982535 
L 120.211948 287.081374 
L 121.025619 286.993621 
L 121.839289 287.121238 
L 122.65296 286.892885 
L 123.46663 286.882832 
L 124.280301 287.029672 
L 125.907642 286.667832 
L 126.721312 286.615968 
L 127.534983 286.248982 
L 128.348653 286.500191 
L 129.975995 286.24526 
L 130.789665 286.524883 
L 131.603336 286.298693 
L 132.417006 286.544202 
L 134.044347 286.720035 
L 134.858018 286.457142 
L 135.671688 286.687872 
L 136.485359 286.465529 
L 137.299029 286.399537 
L 138.1127 286.607034 
L 138.92637 286.480144 
L 140.553712 286.868785 
L 141.367382 286.604958 
L 142.181053 286.751708 
L 143.808394 286.421487 
L 144.622064 286.485461 
L 145.435735 286.282176 
L 146.249405 286.347178 
L 147.063076 286.110258 
L 147.876746 286.350692 
L 149.504087 286.13066 
L 150.317758 286.194732 
L 151.131429 285.953648 
L 152.75877 285.854591 
L 153.57244 285.689346 
L 156.013452 285.732571 
L 157.640793 286.144793 
L 159.268134 285.99416 
L 160.081805 286.220373 
L 160.895475 286.12682 
L 164.150157 286.404498 
L 164.963828 286.580702 
L 166.591169 286.411724 
L 169.03218 287.133488 
L 172.286863 287.834336 
L 176.355215 288.431761 
L 181.237239 288.894287 
L 187.746603 289.261467 
L 196.696979 289.524115 
L 211.343049 289.69772 
L 240.635188 289.773807 
L 291.082761 289.908446 
L 304.915161 290.154197 
L 313.865537 290.517586 
L 320.374901 290.987207 
L 326.070595 291.632967 
L 330.952618 292.440132 
L 335.020971 293.347583 
L 339.089323 294.509941 
L 343.157676 295.946493 
L 347.226029 297.635294 
L 359.431087 302.989594 
L 361.872098 303.780244 
L 364.31311 304.379539 
L 366.754122 304.767587 
L 369.195133 304.941863 
L 371.636145 304.916249 
L 373.263486 304.800941 
L 374.077157 304.598311 
L 374.890827 289.77557 
L 398.487273 289.778891 
L 398.487273 289.778891 
" clip-path="url(#p3705e5d856)" style="fill: none; stroke: #2ca02c; stroke-width: 1.5; stroke-linecap: square"/>
   </g>
   <g id="line2d_97">
    <path d="M 73.832727 279.060422 
L 169.845851 279.171011 
L 249.585564 279.267638 
L 335.020971 279.152664 
L 398.487273 279.060422 
L 398.487273 279.060422 
" clip-path="url(#p3705e5d856)" style="fill: none; stroke: #d62728; stroke-width: 1.5; stroke-linecap: square"/>
   </g>
   <g id="patch_18">
    <path d="M 57.6 307.584 
L 57.6 249.733565 
" style="fill: none; stroke: #000000; stroke-width: 0.8; stroke-linejoin: miter; stroke-linecap: square"/>
   </g>
   <g id="patch_19">
    <path d="M 414.72 307.584 
L 414.72 249.733565 
" style="fill: none; stroke: #000000; stroke-width: 0.8; stroke-linejoin: miter; stroke-linecap: square"/>
   </g>
   <g id="patch_20">
    <path d="M 57.6 307.584 
L 414.72 307.584 
" style="fill: none; stroke: #000000; stroke-width: 0.8; stroke-linejoin: miter; stroke-linecap: square"/>
   </g>
   <g id="patch_21">
    <path d="M 57.6 249.733565 
L 414.72 249.733565 
" style="fill: none; stroke: #000000; stroke-width: 0.8; stroke-linejoin: miter; stroke-linecap: square"/>
   </g>
   <g id="legend_1">
    <g id="patch_22">
     <path d="M 340.596563 316.446065 
L 407.72 316.446065 
Q 409.72 316.446065 409.72 314.446065 
L 409.72 256.733565 
Q 409.72 254.733565 407.72 254.733565 
L 340.596563 254.733565 
Q 338.596563 254.733565 338.596563 256.733565 
L 338.596563 314.446065 
Q 338.596563 316.446065 340.596563 316.446065 
z
" style="fill: #ffffff; opacity: 0.8; stroke: #cccccc; stroke-linejoin: miter"/>
    </g>
    <g id="line2d_98">
     <path d="M 342.596563 262.832003 
L 352.596563 262.832003 
L 362.596563 262.832003 
" style="fill: none; stroke: #1f77b4; stroke-width: 1.5; stroke-linecap: square"/>
    </g>
    <g id="text_54">
     <!-- action -->
     <g transform="translate(370.596563 266.332003)scale(0.1 -0.1)">
      <defs>
       <path id="DejaVuSans-6e" d="M 3513 2113 
L 3513 0 
L 2938 0 
L 2938 2094 
Q 2938 2591 2744 2837 
Q 2550 3084 2163 3084 
Q 1697 3084 1428 2787 
Q 1159 2491 1159 1978 
L 1159 0 
L 581 0 
L 581 3500 
L 1159 3500 
L 1159 2956 
Q 1366 3272 1645 3428 
Q 1925 3584 2291 3584 
Q 2894 3584 3203 3211 
Q 3513 2838 3513 2113 
z
" transform="scale(0.015625)"/>
      </defs>
      <use xlink:href="#DejaVuSans-61"/>
      <use xlink:href="#DejaVuSans-63" x="61.279297"/>
      <use xlink:href="#DejaVuSans-74" x="116.259766"/>
      <use xlink:href="#DejaVuSans-69" x="155.46875"/>
      <use xlink:href="#DejaVuSans-6f" x="183.251953"/>
      <use xlink:href="#DejaVuSans-6e" x="244.433594"/>
     </g>
    </g>
    <g id="line2d_99">
     <path d="M 342.596563 277.510128 
L 352.596563 277.510128 
L 362.596563 277.510128 
" style="fill: none; stroke: #ff7f0e; stroke-width: 1.5; stroke-linecap: square"/>
    </g>
    <g id="text_55">
     <!-- thrust -->
     <g transform="translate(370.596563 281.010128)scale(0.1 -0.1)">
      <defs>
       <path id="DejaVuSans-68" d="M 3513 2113 
L 3513 0 
L 2938 0 
L 2938 2094 
Q 2938 2591 2744 2837 
Q 2550 3084 2163 3084 
Q 1697 3084 1428 2787 
Q 1159 2491 1159 1978 
L 1159 0 
L 581 0 
L 581 4863 
L 1159 4863 
L 1159 2956 
Q 1366 3272 1645 3428 
Q 1925 3584 2291 3584 
Q 2894 3584 3203 3211 
Q 3513 2838 3513 2113 
z
" transform="scale(0.015625)"/>
      </defs>
      <use xlink:href="#DejaVuSans-74"/>
      <use xlink:href="#DejaVuSans-68" x="39.208984"/>
      <use xlink:href="#DejaVuSans-72" x="102.587891"/>
      <use xlink:href="#DejaVuSans-75" x="143.701172"/>
      <use xlink:href="#DejaVuSans-73" x="207.080078"/>
      <use xlink:href="#DejaVuSans-74" x="259.179688"/>
     </g>
    </g>
    <g id="line2d_100">
     <path d="M 342.596563 292.188253 
L 352.596563 292.188253 
L 362.596563 292.188253 
" style="fill: none; stroke: #2ca02c; stroke-width: 1.5; stroke-linecap: square"/>
    </g>
    <g id="text_56">
     <!-- drag -->
     <g transform="translate(370.596563 295.688253)scale(0.1 -0.1)">
      <use xlink:href="#DejaVuSans-64"/>
      <use xlink:href="#DejaVuSans-72" x="63.476562"/>
      <use xlink:href="#DejaVuSans-61" x="104.589844"/>
      <use xlink:href="#DejaVuSans-67" x="165.869141"/>
     </g>
    </g>
    <g id="line2d_101">
     <path d="M 342.596563 306.866378 
L 352.596563 306.866378 
L 362.596563 306.866378 
" style="fill: none; stroke: #d62728; stroke-width: 1.5; stroke-linecap: square"/>
    </g>
    <g id="text_57">
     <!-- gravity -->
     <g transform="translate(370.596563 310.366378)scale(0.1 -0.1)">
      <defs>
       <path id="DejaVuSans-76" d="M 191 3500 
L 800 3500 
L 1894 563 
L 2988 3500 
L 3597 3500 
L 2284 0 
L 1503 0 
L 191 3500 
z
" transform="scale(0.015625)"/>
      </defs>
      <use xlink:href="#DejaVuSans-67"/>
      <use xlink:href="#DejaVuSans-72" x="63.476562"/>
      <use xlink:href="#DejaVuSans-61" x="104.589844"/>
      <use xlink:href="#DejaVuSans-76" x="165.869141"/>
      <use xlink:href="#DejaVuSans-69" x="225.048828"/>
      <use xlink:href="#DejaVuSans-74" x="252.832031"/>
      <use xlink:href="#DejaVuSans-79" x="292.041016"/>
     </g>
    </g>
   </g>
  </g>
 </g>
 <defs>
  <clipPath id="pdd4181ce09">
   <rect x="57.6" y="41.472" width="357.12" height="57.850435"/>
  </clipPath>
  <clipPath id="p3e2e7f9099">
   <rect x="57.6" y="110.892522" width="357.12" height="57.850435"/>
  </clipPath>
  <clipPath id="pa0c9da86db">
   <rect x="57.6" y="180.313043" width="357.12" height="57.850435"/>
  </clipPath>
  <clipPath id="p3705e5d856">
   <rect x="57.6" y="249.733565" width="357.12" height="57.850435"/>
  </clipPath>
 </defs>
</svg>
